<svg width="41" height="40" viewBox="0 0 41 40" fill="none" xmlns="http://www.w3.org/2000/svg">
<path d="M20.0313 0C31.094 0 40.0626 8.95455 40.0626 20C40.0626 31.0455 31.094 40 20.0313 40C8.96856 40 0 31.0455 0 20C0 8.95455 8.96856 0 20.0313 0ZM26.9412 28.1527C27.309 27.0245 29.0363 15.7755 29.2484 13.5582C29.3131 12.8873 29.1 12.4409 28.6848 12.2409C28.1813 12 27.4365 12.12 26.5706 12.4318C25.3842 12.8591 10.2196 19.2873 9.34369 19.66C8.5133 20.0127 7.72753 20.3964 7.72753 20.9536C7.72753 21.3455 7.96062 21.5655 8.60162 21.7936C9.26812 22.0309 10.948 22.5391 11.9414 22.8127C12.8974 23.0764 13.9837 22.8473 14.5937 22.4691C15.2393 22.0682 22.6982 17.0864 23.2327 16.6491C23.7671 16.2127 24.1942 16.7718 23.7571 17.2091C23.3201 17.6455 18.2012 22.6064 17.5256 23.2936C16.7052 24.1273 17.287 24.9918 17.8379 25.3382C18.4652 25.7336 22.9814 28.7573 23.6615 29.2427C24.3417 29.7282 25.0309 29.9482 25.6628 29.9482C26.2947 29.9473 26.6271 29.1164 26.9412 28.1527Z" fill="white"/>
</svg>
