<svg width="330" height="149" viewBox="0 0 330 149" fill="none" xmlns="http://www.w3.org/2000/svg">
<g clip-path="url(#clip0_78_76)">
<path fill-rule="evenodd" clip-rule="evenodd" d="M108.12 69.3354C102.97 82.1584 98.38 94.1406 93.2648 106.929C58.2292 107.664 44.8456 124.657 25.2607 144.557L51.6776 82.9642C59.3503 95.0164 65.6918 96.1026 68.1443 92.0384C72.1734 85.2065 70.842 71.1923 65.4816 63.7297C70.842 50.5914 75.5368 39.8354 80.8972 26.6621C85.4869 49.0498 93.3699 62.1531 108.12 69.3354Z" fill="#F3E244" stroke="#1B1B1B" stroke-width="0.57" stroke-miterlimit="22.93"/>
<path fill-rule="evenodd" clip-rule="evenodd" d="M0 79.741L15.4156 41.2018C50.4512 40.4661 67.7588 19.8301 87.3437 -0.0700684L57.8437 68.6347C50.1709 56.6175 44.32 52.9738 41.9376 57.0379C37.9435 63.8699 39.2398 77.6038 44.6003 85.0664C39.2398 98.0996 33.7042 111.518 28.3438 124.657C23.7541 102.444 14.75 86.9233 0 79.741Z" fill="black"/>
<path fill-rule="evenodd" clip-rule="evenodd" d="M138.741 16.4667H133.485L133.135 17.5178H133.801C134.014 17.5448 134.212 17.6437 134.361 17.7981C134.407 17.8843 134.431 17.9806 134.431 18.0783C134.431 18.1761 134.407 18.2724 134.361 18.3586C134.234 18.7026 134.07 19.0316 133.871 19.3396L132.189 22.2125L130.507 25.0154L128.756 27.8883L127.915 18.4637C127.839 18.2725 127.839 18.0594 127.915 17.8681C128.117 17.6773 128.375 17.5548 128.65 17.5178H129.351L129.631 16.4667H122.94L122.624 17.5178C122.995 17.5551 123.36 17.6375 123.71 17.763C123.957 17.8612 124.157 18.0489 124.271 18.2886C124.395 18.565 124.466 18.862 124.481 19.1644C124.481 19.4447 124.481 19.8652 124.481 20.4257C124.481 20.9863 124.481 21.6169 124.691 22.3527C124.902 23.0884 124.691 23.8943 124.937 24.7001L125.147 27.1175C125.147 27.9233 125.322 28.6591 125.392 29.3598C125.462 30.0605 125.392 30.586 125.392 31.0765C125.427 31.426 125.427 31.7781 125.392 32.1276C125.364 32.4096 125.28 32.6834 125.147 32.9334C124.91 33.3571 124.588 33.7269 124.201 34.0195C123.936 34.2747 123.587 34.4242 123.22 34.44C122.967 34.4283 122.724 34.343 122.519 34.1947C122.275 34.0362 122.051 33.8479 121.854 33.6341C121.745 33.4842 121.581 33.3834 121.398 33.3539C121.241 33.2914 121.065 33.2914 120.908 33.3539C120.652 33.539 120.427 33.7637 120.242 34.0195C120.066 34.2677 119.957 34.5575 119.927 34.8604C119.854 35.1478 119.854 35.4488 119.927 35.7363C120.085 35.9747 120.302 36.1679 120.557 36.2968C120.858 36.4154 121.18 36.4749 121.503 36.472C121.873 36.477 122.24 36.4177 122.589 36.2968C123.021 36.1278 123.423 35.8913 123.78 35.5961C124.303 35.2023 124.785 34.7562 125.217 34.2648C125.808 33.5611 126.357 32.8241 126.864 32.0575C127.214 31.567 127.599 30.9714 128.02 30.3058L129.807 28.0284L131.278 25.7161L132.68 23.4388L133.941 21.4418L134.922 19.9703C135.187 19.5428 135.479 19.1332 135.798 18.744C135.996 18.4568 136.231 18.1976 136.498 17.9732C136.748 17.7987 137.018 17.6574 137.304 17.5528C137.676 17.5089 138.051 17.4972 138.425 17.5178L138.741 16.5718V16.4667ZM146.764 16.4667L146.413 17.4477C146.775 17.4138 147.138 17.4138 147.5 17.4477C147.78 17.4477 147.955 17.4477 148.025 17.7981C148.121 18.034 148.121 18.2978 148.025 18.5338C147.933 18.9952 147.816 19.4513 147.675 19.9002L143.856 32.1977C143.728 32.6424 143.564 33.0759 143.365 33.494C143.259 33.7646 143.105 34.0139 142.91 34.2297C142.715 34.419 142.473 34.5521 142.209 34.6151C141.848 34.646 141.484 34.646 141.123 34.6151L140.773 35.5611H148.586L148.901 34.6151C148.481 34.6468 148.06 34.6468 147.64 34.6151C147.446 34.5311 147.277 34.3983 147.149 34.2297C147.066 33.9915 147.066 33.7323 147.149 33.494C147.149 33.1787 147.324 32.7582 147.5 32.1977L148.936 27.6431L150.583 28.1686H150.653C150.814 28.2037 150.982 28.2037 151.143 28.1686C152.059 28.1046 152.959 27.8915 153.806 27.5379C154.604 27.2133 155.34 26.7508 155.978 26.1716C156.668 25.6407 157.241 24.9726 157.66 24.2096C158.091 23.4169 158.364 22.5484 158.466 21.652C158.648 20.8683 158.648 20.0532 158.466 19.2696C158.273 18.6448 157.909 18.0865 157.415 17.6579C156.877 17.231 156.257 16.9208 155.593 16.747C154.789 16.5576 153.966 16.4635 153.14 16.4667H146.764ZM151.318 19.3747C151.318 18.9542 151.564 18.6039 151.669 18.3586C151.731 18.1624 151.854 17.9908 152.019 17.8681C152.115 17.7198 152.248 17.5991 152.405 17.5178H152.93C153.376 17.5061 153.811 17.6553 154.156 17.9382C154.533 18.2376 154.793 18.6588 154.892 19.1294C155.037 19.799 155.037 20.4919 154.892 21.1615C154.792 21.8939 154.604 22.6115 154.331 23.2986C154.078 23.9387 153.736 24.5401 153.315 25.0855C152.941 25.576 152.477 25.9919 151.949 26.3117C151.48 26.6155 150.931 26.7739 150.372 26.7672H149.602L149.006 26.5219L151.248 19.5148L151.318 19.3747ZM179.347 34.7903C179.033 34.8262 178.715 34.8262 178.401 34.7903C178.189 34.7208 178.005 34.5858 177.875 34.4049C177.732 34.1718 177.648 33.9072 177.63 33.6341C177.63 33.3188 177.63 32.8984 177.63 32.4079C177.63 30.3058 177.63 28.2387 177.63 26.2767C177.63 24.3147 177.63 22.3877 177.63 20.4608V16.2915L176.334 16.6419L166.664 31.7773L165.648 33.2487C165.405 33.563 165.135 33.8561 164.842 34.1246C164.602 34.3223 164.329 34.4765 164.036 34.5801C163.72 34.6942 163.39 34.7649 163.055 34.7903L162.74 35.7363H168.451L168.766 34.7903C168.34 34.7692 167.923 34.6619 167.54 34.475C167.433 34.4297 167.344 34.35 167.286 34.2486C167.229 34.1471 167.208 34.0296 167.225 33.9144C167.299 33.5578 167.429 33.215 167.61 32.8984L168.171 31.532L168.801 30.4459C168.993 30.085 169.204 29.7341 169.432 29.3948H174.057C174.057 29.9204 174.057 30.4809 174.057 31.0765C174.057 31.6721 174.057 32.2677 174.057 32.9334C174.115 33.2342 174.115 33.5435 174.057 33.8444C174.021 33.9639 173.958 34.0736 173.873 34.1648C173.788 34.256 173.683 34.3262 173.566 34.3699C173.229 34.5425 172.858 34.6383 172.48 34.6502L172.13 35.5961H179.137L179.487 34.6502L179.347 34.7903ZM174.197 28.0284H170.343L171.674 25.8562L173.005 23.7191L174.337 21.5118L174.197 28.0284ZM207.726 16.4667H194.447L194.132 17.5178H195.393C195.619 17.5801 195.825 17.701 195.989 17.8681C196.055 17.9445 196.105 18.0337 196.135 18.1302C196.165 18.2266 196.175 18.3282 196.164 18.4287C196.113 18.7479 196.043 19.0638 195.954 19.3747C195.358 21.2666 194.728 22.8782 194.097 24.5599C193.466 26.2416 192.836 27.5029 192.205 28.6941C191.668 29.7545 191.071 30.7838 190.418 31.7773C189.998 32.3378 189.612 32.8634 189.227 33.2838C188.89 33.7135 188.514 34.1122 188.106 34.475C187.721 34.82 187.311 35.1362 186.88 35.421V35.9114C187.09 36.0125 187.315 36.0832 187.545 36.1217C187.824 36.1601 188.107 36.1601 188.386 36.1217C188.753 36.1119 189.107 35.9896 189.402 35.7713C189.779 35.4611 190.13 35.1214 190.453 34.7553C191.035 34.0047 191.574 33.2209 192.065 32.4079C192.59 31.497 193.116 30.4809 193.606 29.3948C194.097 28.3087 194.587 27.1876 195.078 25.8913C195.568 24.595 195.989 23.5439 196.409 22.3877C196.83 21.2315 197.215 20.0053 197.565 18.8842C197.623 18.5931 197.717 18.3106 197.846 18.0433C197.899 17.8614 198.009 17.7016 198.161 17.5879C198.332 17.5317 198.516 17.5317 198.687 17.5879H201.279C201.449 17.5263 201.635 17.5263 201.805 17.5879C201.805 17.5879 201.805 17.5879 201.805 17.9732C201.805 18.3586 201.805 18.4287 201.594 18.7791L197.46 31.7773C197.46 32.4079 197.075 32.8984 196.935 33.2838C196.799 33.6084 196.622 33.9145 196.409 34.1947C196.194 34.3826 195.944 34.5255 195.673 34.6151C195.312 34.646 194.949 34.646 194.587 34.6151L194.272 35.5611H201.805L202.085 34.6151C201.712 34.6451 201.337 34.6451 200.964 34.6151C200.858 34.5809 200.761 34.5261 200.677 34.4539C200.592 34.3818 200.523 34.2937 200.473 34.1947C200.402 33.8953 200.402 33.5832 200.473 33.2838C200.473 32.8984 200.719 32.4079 200.894 31.7773L204.643 19.9703C204.76 19.5382 204.912 19.1164 205.098 18.709C205.202 18.429 205.37 18.1772 205.589 17.9732C205.783 17.784 206.025 17.6508 206.289 17.5879C206.674 17.5578 207.061 17.5578 207.445 17.5879L207.726 16.6419V16.4667ZM221.214 19.9703C221.214 19.4447 221.53 19.0243 221.67 18.709C221.768 18.4241 221.923 18.1619 222.125 17.9382C222.332 17.7738 222.571 17.6545 222.826 17.5879C223.199 17.5579 223.574 17.5579 223.947 17.5879L224.227 16.4667H216.94L216.625 17.5178C216.974 17.4836 217.326 17.4836 217.676 17.5178C217.782 17.5398 217.881 17.586 217.966 17.6529C218.051 17.7197 218.12 17.8054 218.166 17.9032C218.258 18.1398 218.258 18.4023 218.166 18.6389C218.104 19.0688 217.998 19.4913 217.851 19.9002L214.067 32.0575C213.892 32.6181 213.717 33.0385 213.577 33.3889C213.458 33.6931 213.293 33.9769 213.086 34.2297C212.885 34.4175 212.646 34.5608 212.385 34.6502C212.012 34.6801 211.637 34.6801 211.264 34.6502L210.949 35.5611H217.571C218.422 35.6144 219.277 35.6144 220.128 35.5611C220.906 35.4415 221.669 35.2419 222.406 34.9655C223.144 34.6463 223.839 34.2342 224.473 33.7392C225.096 33.2199 225.618 32.5905 226.014 31.8824C226.46 31.1062 226.746 30.2484 226.855 29.3598C227.036 28.5878 227.036 27.7844 226.855 27.0124C226.691 26.4029 226.334 25.8624 225.839 25.4709C225.325 25.0022 224.697 24.6761 224.017 24.5249C223.276 24.3219 222.509 24.2275 221.74 24.2446H220.724H219.918L221.284 19.7951L221.214 19.9703ZM219.463 25.576H219.988H220.724C221.273 25.5709 221.815 25.7034 222.3 25.9613C222.749 26.247 223.084 26.6809 223.246 27.1876C223.396 27.9394 223.396 28.7131 223.246 29.4649C223.134 30.142 222.934 30.8015 222.651 31.4269C222.385 32.0441 222.018 32.6125 221.565 33.1086C221.179 33.5698 220.717 33.9609 220.198 34.2648C219.713 34.5271 219.173 34.6711 218.622 34.6852C218.277 34.7134 217.932 34.6272 217.641 34.44C217.521 34.3367 217.427 34.207 217.366 34.061C217.305 33.915 217.279 33.7569 217.29 33.5991C217.324 33.0531 217.418 32.5126 217.571 31.9875L219.533 25.6811L219.463 25.576ZM249.068 30.551C248.402 31.3919 247.736 32.1626 247.106 32.8283C246.557 33.4117 245.933 33.9185 245.249 34.3349C244.679 34.718 244.009 34.9251 243.322 34.9305C242.983 34.9377 242.646 34.869 242.337 34.7296C242.028 34.5902 241.754 34.3835 241.535 34.1246C241.009 33.4847 240.68 32.7057 240.589 31.8824C240.436 30.7196 240.436 29.5416 240.589 28.3788C240.759 27.1873 241.041 26.0143 241.43 24.8752C241.762 23.8084 242.221 22.7851 242.796 21.8272C243.286 20.9676 243.874 20.1681 244.548 19.4447C245.111 18.8291 245.76 18.298 246.475 17.8681C247.101 17.5347 247.798 17.3546 248.507 17.3426C249.089 17.2788 249.674 17.4282 250.154 17.763C250.632 18.0964 250.969 18.596 251.1 19.1644C251.324 19.9973 251.407 20.8618 251.345 21.722H252.291C252.291 20.9863 252.606 20.1805 252.781 19.3747C252.957 18.5688 253.097 17.763 253.272 16.9922L252.431 16.6769L251.03 16.3616C250.423 16.3214 249.814 16.3214 249.208 16.3616C248.018 16.3682 246.837 16.5573 245.704 16.9222C244.568 17.315 243.494 17.8696 242.516 18.5688C241.504 19.2821 240.607 20.1444 239.853 21.1264C239.022 22.1859 238.36 23.3678 237.891 24.63C237.392 25.7144 237.028 26.8557 236.805 28.0284C236.602 29.1874 236.602 30.373 236.805 31.532C236.983 32.4468 237.367 33.3092 237.926 34.0546C238.475 34.726 239.186 35.2448 239.993 35.5611C240.906 35.9293 241.883 36.1081 242.866 36.0866C243.473 36.1394 244.082 36.1394 244.688 36.0866L246.195 35.8063L247.211 35.5261C247.421 35.2458 247.631 34.8954 247.876 34.51L248.577 33.3539L249.243 32.1626C249.453 31.8123 249.628 31.4619 249.803 31.1116L249.033 30.6561L249.068 30.551ZM267.601 20.0403C267.777 19.4798 267.952 19.0593 268.092 18.709C268.199 18.4016 268.379 18.1249 268.618 17.9032C268.807 17.6924 269.049 17.5353 269.318 17.4477H270.404L270.72 16.5017H263.187L262.767 17.5178C263.163 17.4826 263.561 17.4826 263.958 17.5178C264.238 17.5178 264.413 17.728 264.483 17.9382C264.577 18.1987 264.577 18.4836 264.483 18.744C264.483 19.0944 264.273 19.5498 264.063 20.1104L260.384 32.0225C260.255 32.4895 260.091 32.9462 259.894 33.3889C259.776 33.6827 259.61 33.955 259.403 34.1947C259.202 34.3825 258.963 34.5257 258.702 34.6151C258.341 34.646 257.978 34.646 257.616 34.6151L257.266 35.5611H264.764L265.079 34.6151C264.706 34.6484 264.331 34.6484 263.958 34.6151C263.848 34.5788 263.748 34.5193 263.663 34.4407C263.578 34.3622 263.512 34.2663 263.467 34.1597C263.392 33.8963 263.392 33.6172 263.467 33.3539C263.57 32.9031 263.699 32.4586 263.853 32.0225L265.815 25.8562H266.55C266.779 25.93 266.985 26.063 267.146 26.2416C267.335 26.503 267.466 26.8016 267.531 27.1175C267.575 27.6187 267.575 28.1228 267.531 28.6241V30.1656C267.531 30.6561 267.531 31.0765 267.531 31.497C267.531 31.9174 267.531 32.3028 267.531 32.6531C267.49 33.1076 267.49 33.565 267.531 34.0195C267.581 34.3507 267.714 34.6639 267.917 34.9305C268.095 35.1915 268.353 35.3881 268.653 35.491C269.07 35.5572 269.496 35.5572 269.914 35.491H272.436L272.752 34.5451C272.433 34.5359 272.121 34.4519 271.841 34.2998C271.585 34.147 271.387 33.9126 271.28 33.6341C271.12 33.207 271.026 32.7582 271 32.3028C271 31.7422 271 31.1817 271 30.6912C271 30.2007 271 29.7102 271 29.2897C271.024 28.9515 271.024 28.612 271 28.2737C270.973 27.6982 270.854 27.1306 270.65 26.592C270.406 26.285 270.109 26.024 269.774 25.8212C269.476 25.5777 269.146 25.3772 268.793 25.2256L269.774 24.7001C270.153 24.432 270.505 24.1269 270.825 23.7891C271.321 23.313 271.778 22.7974 272.191 22.2476L273.663 20.2155C273.969 19.8018 274.296 19.4042 274.644 19.0243C274.838 18.7935 275.076 18.603 275.344 18.4637C275.572 18.3913 275.817 18.3913 276.045 18.4637H276.571C276.732 18.4988 276.899 18.4988 277.061 18.4637C277.238 18.3673 277.403 18.2496 277.552 18.1134C277.668 17.9439 277.752 17.7536 277.797 17.5528C277.851 17.3579 277.851 17.1521 277.797 16.9572C277.715 16.7686 277.565 16.6182 277.376 16.5368C277.135 16.4729 276.882 16.4729 276.641 16.5368C276.285 16.552 275.938 16.6478 275.625 16.8171C275.202 17.0549 274.823 17.3629 274.503 17.728C274.023 18.2371 273.589 18.7882 273.207 19.3747C272.752 20.1454 272.296 20.7761 271.946 21.3016L270.965 22.633L270.124 23.5789L269.388 24.2796C269.078 24.5419 268.737 24.7655 268.372 24.9453C268.065 25.1103 267.734 25.2284 267.391 25.2957C266.995 25.3335 266.596 25.3335 266.2 25.2957L267.742 20.5308L267.601 20.0403ZM304.109 16.4667H298.538V16.9222C298.552 17.0737 298.552 17.2262 298.538 17.3776L298.188 17.9032L287.642 32.1977L291.461 20.5308C291.671 19.8652 291.846 19.3396 292.021 18.9192C292.148 18.6009 292.326 18.3051 292.547 18.0433C292.736 17.8325 292.978 17.6754 293.247 17.5879L294.299 17.5178L294.649 16.5718H287.291L286.941 17.5178C287.302 17.4839 287.666 17.4839 288.027 17.5178C288.141 17.5538 288.247 17.6128 288.337 17.6911C288.428 17.7695 288.501 17.8655 288.553 17.9732C288.626 18.2725 288.626 18.5849 288.553 18.8842C288.553 19.2696 288.308 19.8301 288.097 20.4958L284.524 31.532C284.313 32.1977 284.138 32.7232 283.963 33.1436C283.83 33.4773 283.64 33.7855 283.403 34.0546C283.201 34.2423 282.962 34.3856 282.702 34.475H281.616L281.3 35.421H286.871V34.9655L287.291 34.6852C287.291 34.51 287.502 34.2998 287.677 34.0546L297.802 19.69L293.983 31.7072C293.773 32.3729 293.563 32.8984 293.423 33.2838C293.287 33.6084 293.11 33.9145 292.897 34.1947C292.69 34.3747 292.453 34.517 292.196 34.6151C291.859 34.6469 291.518 34.6469 291.18 34.6151L290.795 35.7363H298.117L298.398 34.7903C298.025 34.8203 297.65 34.8203 297.277 34.7903C297.061 34.7094 296.877 34.5621 296.751 34.3699C296.68 34.0704 296.68 33.7584 296.751 33.459C296.875 32.9257 297.027 32.3995 297.207 31.8824L300.71 20.4958C300.71 19.8652 301.06 19.3747 301.201 18.9893C301.343 18.69 301.52 18.4079 301.726 18.1484C301.957 17.8326 302.292 17.609 302.672 17.5178C303.045 17.4878 303.42 17.4878 303.793 17.5178L304.109 16.5718V16.4667ZM330 16.4667H324.429V16.9222C324.389 17.0859 324.317 17.2405 324.219 17.3776C324.14 17.5673 324.034 17.7443 323.904 17.9032L313.533 32.1977L317.352 20.5308C317.562 19.8652 317.737 19.3396 317.913 18.9192C318.012 18.5879 318.192 18.2867 318.438 18.0433C318.628 17.8325 318.869 17.6754 319.139 17.5879H320.19L320.54 16.6419H313.218L312.832 17.5178C313.194 17.4839 313.557 17.4839 313.918 17.5178C314.028 17.5541 314.129 17.6136 314.213 17.6922C314.298 17.7708 314.365 17.8666 314.409 17.9732C314.516 18.2674 314.516 18.59 314.409 18.8842C314.301 19.4292 314.161 19.9674 313.989 20.4958L310.415 31.532C310.205 32.1977 310.03 32.7232 309.854 33.1436C309.721 33.4773 309.532 33.7855 309.294 34.0546C309.092 34.2423 308.854 34.3856 308.593 34.475H307.507L307.192 35.421H312.762V34.9655L312.973 34.3699C312.973 34.1947 313.183 33.9845 313.358 33.7392L323.553 19.3747L319.875 31.7072C319.664 32.3729 319.454 32.8984 319.314 33.2838C319.181 33.6174 318.991 33.9256 318.753 34.1947C318.565 34.3817 318.338 34.5252 318.088 34.6151C317.75 34.6437 317.41 34.6437 317.072 34.6151L316.756 35.5611H324.079L324.359 34.6151C323.986 34.6484 323.611 34.6484 323.238 34.6151C323.023 34.5342 322.839 34.387 322.712 34.1947C322.641 33.8953 322.641 33.5832 322.712 33.2838C322.82 32.7464 322.972 32.219 323.168 31.7072L326.671 20.3206C326.671 19.69 327.022 19.1995 327.162 18.8141C327.305 18.5148 327.481 18.2327 327.687 17.9732C327.918 17.7251 328.228 17.5642 328.563 17.5178C328.936 17.4878 329.311 17.4878 329.684 17.5178L330 16.5718V16.4667ZM325.831 10.8961C325.564 11.3311 325.259 11.7414 324.92 12.1223C324.609 12.454 324.241 12.7269 323.834 12.9281C323.422 13.1389 322.965 13.2471 322.502 13.2434C322.131 13.2615 321.764 13.1636 321.451 12.9632C321.328 12.8714 321.224 12.756 321.146 12.6236C321.068 12.4913 321.017 12.3447 320.996 12.1924C320.928 11.7864 320.928 11.3721 320.996 10.9661H320.19L319.91 11.3866L319.454 12.0873C319.357 12.327 319.275 12.5728 319.209 12.823C319.179 13.2053 319.239 13.5893 319.384 13.9442C319.553 14.3229 319.835 14.6408 320.19 14.8551C320.622 15.1148 321.123 15.2369 321.626 15.2054C322.276 15.2027 322.919 15.0717 323.518 14.82C324.18 14.5052 324.765 14.0511 325.235 13.4887C325.816 12.7932 326.289 12.0135 326.636 11.1763L325.831 10.8961Z" fill="white"/>
<path fill-rule="evenodd" clip-rule="evenodd" d="M117.264 45.8265L116.984 46.8075H118.07C118.296 46.8677 118.493 47.0038 118.63 47.1929C118.698 47.4335 118.698 47.688 118.63 47.9286C118.567 48.3898 118.474 48.8463 118.35 49.295L115.617 61.5575C115.528 61.9964 115.411 62.4294 115.267 62.8538C115.157 63.1152 115.016 63.3622 114.847 63.5895C114.665 63.7776 114.434 63.9111 114.181 63.9749C113.82 64.0058 113.456 64.0058 113.095 63.9749L112.85 64.9209H120.663L120.873 63.9749C120.453 64.0066 120.031 64.0066 119.611 63.9749C119.356 63.9148 119.125 63.7807 118.946 63.5895C118.868 63.3504 118.868 63.0929 118.946 62.8538C118.981 62.4167 119.051 61.9832 119.156 61.5575L120.242 57.0029L121.924 57.5284H122.625C123.507 57.4679 124.373 57.2545 125.182 56.8978C125.957 56.5678 126.668 56.1054 127.284 55.5314C127.881 54.9722 128.368 54.3069 128.721 53.5694C129.082 52.7612 129.295 51.8951 129.351 51.0118C129.406 50.2046 129.299 49.3945 129.036 48.6294C128.793 47.994 128.381 47.4369 127.845 47.0177C127.281 46.5907 126.638 46.281 125.953 46.1068C125.149 45.9193 124.326 45.8252 123.5 45.8265H117.264ZM122.029 48.7345C122.099 48.3899 122.193 48.0504 122.309 47.7184C122.373 47.5216 122.481 47.3419 122.625 47.1929L122.975 47.0177C123.148 46.9786 123.327 46.9786 123.5 47.0177C123.951 47.01 124.392 47.1449 124.762 47.4031C125.164 47.7134 125.458 48.1424 125.603 48.6294C125.819 49.2714 125.903 49.951 125.848 50.6264C125.816 51.3673 125.675 52.0994 125.427 52.7986C125.236 53.4384 124.94 54.0421 124.551 54.5854C124.232 55.0867 123.8 55.5066 123.29 55.8117C122.836 56.1187 122.297 56.2777 121.749 56.2671H120.978L120.382 56.0569L122.029 49.0498V48.7345ZM132.54 45.8265H144.417C144.417 46.0017 144.417 46.282 144.417 46.5973C144.417 46.9126 144.417 47.333 144.206 47.7535C143.996 48.1739 144.206 48.5943 143.961 49.0498C143.716 49.5052 143.961 49.9257 143.751 50.3111H142.875C142.875 49.7855 142.875 49.295 142.875 48.8396C142.842 48.4759 142.747 48.1205 142.595 47.7885C142.528 47.5943 142.407 47.4238 142.244 47.298C142.051 47.1543 141.82 47.0691 141.579 47.0528C141.195 47.0078 140.807 47.0078 140.423 47.0528H138.951C138.731 47.0102 138.505 47.0102 138.285 47.0528C138.21 47.0739 138.142 47.114 138.087 47.1692C138.031 47.2244 137.991 47.2929 137.97 47.3681C137.848 47.5829 137.777 47.8224 137.76 48.0688L136.288 54.3051H139.407C139.688 54.2727 139.954 54.1636 140.177 53.9898C140.415 53.8165 140.608 53.588 140.738 53.3241C140.738 53.0088 141.088 52.6234 141.298 52.0979H142.209L140.773 58.159H139.827C139.857 57.7274 139.857 57.2943 139.827 56.8627C139.816 56.5993 139.731 56.3443 139.582 56.127C139.503 56.0351 139.406 55.96 139.298 55.9058C139.19 55.8517 139.072 55.8197 138.951 55.8117C138.533 55.7527 138.108 55.7527 137.69 55.8117H135.903L134.677 61.0319C134.677 61.5224 134.467 61.9429 134.432 62.2582C134.417 62.5149 134.417 62.7722 134.432 63.029C134.451 63.2098 134.524 63.3806 134.642 63.5195C134.829 63.7119 135.076 63.8354 135.342 63.8698C135.844 63.9138 136.348 63.9138 136.849 63.8698C137.465 63.8864 138.081 63.8036 138.671 63.6246C139.157 63.4714 139.6 63.2075 139.967 62.8538C140.306 62.5128 140.622 62.1499 140.913 61.7677C141.228 61.3122 141.579 60.7517 141.929 60.1561L142.805 60.5064C142.719 60.782 142.613 61.0513 142.49 61.3122C142.49 61.6276 142.244 61.9429 142.104 62.3283C141.964 62.7137 141.789 63.029 141.649 63.3793L141.228 64.3253C141.228 64.6406 140.983 64.8508 140.913 65.061H128.16L128.405 64.1151C128.79 64.1479 129.177 64.1479 129.562 64.1151C129.826 64.0521 130.068 63.9189 130.262 63.7297C130.471 63.4976 130.627 63.2225 130.718 62.9239C130.718 62.5735 130.963 62.083 131.103 61.4874L133.906 49.6454C134.035 49.1878 134.117 48.7182 134.151 48.244C134.229 47.993 134.229 47.7242 134.151 47.4732C134.019 47.2797 133.819 47.1423 133.591 47.0878C133.222 46.9992 132.847 46.9406 132.47 46.9126L132.715 45.9667L132.54 45.8265ZM147.43 45.8265L147.22 46.7374C147.598 46.762 147.973 46.8207 148.341 46.9126C148.453 46.9301 148.56 46.9702 148.657 47.0304C148.753 47.0906 148.836 47.1697 148.901 47.263C148.982 47.5255 148.982 47.8063 148.901 48.0688C148.84 48.5648 148.746 49.0564 148.621 49.5403L145.818 61.3823C145.726 61.8554 145.609 62.3232 145.468 62.7837C145.368 63.0788 145.214 63.3523 145.012 63.5895C144.853 63.7946 144.632 63.9422 144.382 64.01L143.331 64.1852L143.12 65.0961H150.828L151.073 64.1852C150.637 64.1609 150.204 64.1024 149.777 64.01C149.527 63.9422 149.305 63.7946 149.146 63.5895C149.065 63.327 149.065 63.0462 149.146 62.7837C149.195 62.3113 149.277 61.843 149.392 61.3823L152.51 48.0688C152.56 47.8297 152.63 47.5953 152.72 47.3681C152.748 47.3008 152.792 47.2408 152.846 47.1923C152.901 47.1438 152.965 47.1081 153.035 47.0878C153.256 47.0566 153.48 47.0566 153.701 47.0878H155.103C155.44 47.0457 155.781 47.0457 156.119 47.0878C156.34 47.1415 156.545 47.2499 156.714 47.4031C156.869 47.5665 156.967 47.7753 156.994 47.9987C157.11 48.3493 157.169 48.7158 157.17 49.0848C157.17 49.5052 157.17 50.0308 157.17 50.5914H158.045C158.045 50.206 158.045 49.7855 158.291 49.295C158.536 48.8045 158.291 48.3491 158.536 47.8936C158.781 47.4382 158.536 47.0177 158.746 46.6674C158.765 46.4108 158.765 46.1532 158.746 45.8966L147.43 45.8265ZM177.735 45.8265L177.49 46.7725C177.111 46.7824 176.734 46.8413 176.369 46.9477C176.116 47.0115 175.885 47.145 175.703 47.333C175.482 47.5697 175.325 47.8592 175.248 48.1739C175.076 48.6666 174.935 49.1698 174.828 49.6804L172.095 61.067L171.779 62.6436C171.697 62.9297 171.697 63.2334 171.779 63.5195C171.833 63.6323 171.911 63.7317 172.008 63.8105C172.105 63.8892 172.219 63.9454 172.34 63.9749C172.713 64.0113 173.088 64.0113 173.461 63.9749L173.216 64.9209H166.104L166.349 63.9749C166.687 64.0035 167.027 64.0035 167.365 63.9749C167.609 63.8769 167.826 63.7205 167.996 63.5195C168.204 63.2604 168.358 62.9627 168.451 62.6436C168.626 62.1281 168.767 61.6014 168.871 61.067L171.85 49.0498L162.775 63.4144C162.649 63.6134 162.544 63.8247 162.46 64.045C162.37 64.2328 162.311 64.4339 162.285 64.6406V65.0961H156.539L156.749 64.1501C157.111 64.181 157.474 64.181 157.835 64.1501C158.105 64.0625 158.347 63.9054 158.536 63.6947C158.737 63.4308 158.891 63.1346 158.991 62.8188C159.162 62.2899 159.302 61.7518 159.412 61.2071L162.11 50.1009C162.253 49.5719 162.359 49.0333 162.425 48.4892C162.524 48.1936 162.524 47.8739 162.425 47.5783C162.311 47.3674 162.124 47.2054 161.899 47.1228C161.532 47.0309 161.156 46.9722 160.778 46.9477L161.094 46.0017H168.171L167.89 46.9477L166.839 47.1228C166.594 47.2213 166.368 47.3637 166.174 47.5433C165.987 47.8282 165.834 48.1339 165.718 48.4542C165.718 48.8746 165.438 49.4001 165.298 50.0658L162.425 61.7327L171.674 47.263L171.99 46.7374C172.005 46.586 172.005 46.4334 171.99 46.282V45.8265H177.735ZM187.37 45.5462C186.322 45.546 185.284 45.7606 184.322 46.1769C183.336 46.6144 182.425 47.2057 181.624 47.9286C180.782 48.7258 180.051 49.6333 179.452 50.6264C178.815 51.7314 178.309 52.9072 177.946 54.1299C177.579 55.4093 177.356 56.7254 177.28 58.0539C177.208 59.1016 177.303 60.154 177.56 61.1721C177.773 62.0496 178.167 62.8731 178.716 63.5895C179.214 64.271 179.877 64.8138 180.643 65.1661C181.48 65.5435 182.388 65.7347 183.306 65.7267C184.382 65.7366 185.446 65.5093 186.424 65.061C187.458 64.5654 188.396 63.8891 189.192 63.064C190.014 62.2791 190.721 61.3828 191.294 60.4013C191.918 59.3557 192.412 58.238 192.766 57.0729C193.12 55.8638 193.332 54.6174 193.396 53.3592C193.481 52.2785 193.399 51.1912 193.151 50.1359C192.971 49.2387 192.6 48.3905 192.065 47.6484C191.592 46.9498 190.938 46.3928 190.173 46.0367C189.321 45.6279 188.385 45.4239 187.44 45.4411L187.37 45.5462ZM187.125 46.7024C187.617 46.7073 188.095 46.8666 188.491 47.1579C188.854 47.4899 189.12 47.9135 189.262 48.3841C189.456 48.95 189.574 49.539 189.613 50.1359C189.683 50.8231 189.683 51.5157 189.613 52.203C189.573 53.1203 189.467 54.0335 189.297 54.9358C189.125 55.8696 188.903 56.7936 188.632 57.7036C188.396 58.5834 188.079 59.4396 187.686 60.2612C187.375 61.0184 186.975 61.7358 186.494 62.3983C186.12 62.9691 185.645 63.4676 185.093 63.8698C184.637 64.2087 184.084 64.3929 183.516 64.3954C183.06 64.4063 182.614 64.2576 182.255 63.9749C181.875 63.6659 181.595 63.2515 181.449 62.7837C181.224 62.2237 181.082 61.6334 181.029 61.0319C180.975 60.3089 180.975 59.5828 181.029 58.8597C181.11 57.6818 181.274 56.5111 181.519 55.3562C181.769 54.2328 182.109 53.1315 182.535 52.0628C182.881 51.1184 183.327 50.214 183.867 49.3651C184.313 48.6829 184.856 48.0692 185.478 47.5433C185.96 47.1582 186.546 46.9264 187.16 46.8776L187.125 46.7024ZM214.418 45.9316L214.172 46.8776L213.016 47.0528C212.763 47.1166 212.532 47.2501 212.351 47.4382C212.149 47.6561 212.004 47.921 211.93 48.2089C211.93 48.5243 211.72 48.9447 211.58 49.5052L208.742 61.5575C208.631 61.9953 208.549 62.4401 208.497 62.8888C208.416 63.1395 208.416 63.409 208.497 63.6596C208.634 63.8711 208.847 64.0216 209.092 64.08C209.477 64.1129 209.864 64.1129 210.248 64.08L209.968 65.026H202.506L202.751 64.08C203.112 64.1109 203.476 64.1109 203.837 64.08C204.101 64.0171 204.343 63.8839 204.538 63.6947C204.72 63.4631 204.862 63.2026 204.958 62.9239C205.1 62.4753 205.217 62.0191 205.308 61.5575L206.71 55.6014H200.509L199.142 61.4524C199.142 62.0129 198.932 62.4334 198.897 62.7837C198.819 63.0347 198.819 63.3035 198.897 63.5545C199.03 63.7546 199.228 63.903 199.458 63.9749C199.807 64.0091 200.159 64.0091 200.509 63.9749L200.298 64.9209H192.906L193.151 63.9749C193.524 64.0049 193.899 64.0049 194.272 63.9749C194.529 63.8995 194.76 63.7539 194.938 63.5545C195.14 63.3365 195.285 63.0716 195.358 62.7837C195.506 62.3486 195.623 61.9037 195.709 61.4524L198.582 49.4001C198.695 48.9747 198.777 48.5414 198.827 48.1038C198.912 47.854 198.912 47.5829 198.827 47.333C198.686 47.1322 198.472 46.994 198.231 46.9477C197.84 46.8565 197.441 46.7979 197.04 46.7725L197.285 45.8265H204.818L204.573 46.7725C204.229 46.7985 203.889 46.8572 203.557 46.9477C203.314 47.0122 203.094 47.1461 202.926 47.333C202.749 47.5626 202.618 47.8244 202.541 48.1038C202.397 48.5283 202.28 48.9612 202.19 49.4001L201.069 54.165H207.2L208.322 49.4001C208.435 48.9747 208.517 48.5414 208.567 48.1038C208.647 47.8532 208.647 47.5837 208.567 47.333C208.505 47.2333 208.424 47.1475 208.327 47.0811C208.231 47.0148 208.121 46.9693 208.006 46.9477C207.662 46.8547 207.31 46.796 206.955 46.7725L207.235 45.8265L214.418 45.9316ZM227.731 64.1501C227.405 64.1822 227.076 64.1822 226.75 64.1501C226.531 64.0597 226.338 63.915 226.19 63.7297C226.058 63.5009 225.963 63.2525 225.909 62.9939C225.909 62.6786 225.909 62.2582 225.909 61.7677C225.909 59.6305 225.629 57.5985 225.489 55.6365C225.349 53.6745 225.209 51.7125 225.069 49.8206L224.683 45.5462L223.422 45.8966L214.873 61.2071C214.558 61.8027 214.243 62.2932 213.997 62.6786C213.797 63.0056 213.549 63.3008 213.262 63.5545C213.041 63.7435 212.793 63.8972 212.526 64.01C212.21 64.1241 211.88 64.1948 211.545 64.2202L211.3 65.1661H217.01L217.256 64.2202C216.819 64.1947 216.391 64.0877 215.994 63.9049C215.878 63.8557 215.779 63.7726 215.71 63.6664C215.641 63.5602 215.606 63.4357 215.609 63.3093C215.676 62.9666 215.794 62.636 215.959 62.3283L216.52 61.102L217.045 60.0159L217.571 58.9649H222.231C222.231 59.4904 222.231 60.051 222.231 60.6115C222.231 61.1721 222.231 61.8378 222.231 62.5034C222.287 62.8045 222.287 63.1133 222.231 63.4144C222.197 63.5294 222.138 63.6358 222.06 63.7264C221.981 63.8171 221.884 63.8899 221.775 63.9399C221.451 64.1131 221.091 64.2091 220.724 64.2202L220.444 65.1661H227.451L227.731 64.2202V64.1501ZM222.126 57.4583H218.272L219.428 55.216L220.549 53.0789L221.74 50.8716L222.09 57.4583H222.126ZM247.561 45.8265H234.318L234.073 46.7725C234.493 46.7433 234.914 46.7433 235.334 46.7725C235.582 46.811 235.813 46.9205 236 47.0878C236.055 47.2824 236.055 47.4887 236 47.6834C236.042 47.9973 236.042 48.3155 236 48.6294C235.544 50.5213 235.089 52.1329 234.563 53.7796C234.128 55.1972 233.613 56.5892 233.022 57.9488C232.571 59.0072 232.057 60.0368 231.48 61.0319L230.429 62.5385C230.105 62.9582 229.754 63.3561 229.378 63.7297C229.01 64.0658 228.624 64.3815 228.222 64.6756V65.1661C228.433 65.2672 228.657 65.3379 228.887 65.3764C229.166 65.4148 229.449 65.4148 229.728 65.3764C230.085 65.3714 230.43 65.2482 230.709 65.026C231.067 64.7295 231.385 64.388 231.655 64.01C232.201 63.2703 232.681 62.4849 233.092 61.6626C233.547 60.7517 234.003 59.7356 234.423 58.6495C234.843 57.5634 235.229 56.4423 235.614 55.146L236.665 51.6424C236.981 50.4162 237.261 49.26 237.506 48.1389C237.569 47.8533 237.651 47.5724 237.751 47.298C237.807 47.1258 237.903 46.9695 238.032 46.8425C238.204 46.798 238.385 46.798 238.557 46.8425H241.15C241.322 46.7948 241.503 46.7948 241.675 46.8425C241.703 46.8968 241.717 46.9568 241.717 47.0177C241.717 47.0786 241.703 47.1387 241.675 47.1929C241.637 47.477 241.578 47.758 241.5 48.0338L238.452 60.8568C238.344 61.3674 238.204 61.8706 238.032 62.3633C237.931 62.6791 237.777 62.9753 237.576 63.2392C237.4 63.4487 237.17 63.6062 236.911 63.6947C236.537 63.7246 236.163 63.7246 235.789 63.6947L235.579 64.6406H243.112L243.322 63.6947C242.949 63.731 242.574 63.731 242.201 63.6947C241.961 63.623 241.76 63.4592 241.64 63.2392C241.563 62.9524 241.563 62.6501 241.64 62.3633C241.64 61.9779 241.64 61.4874 241.956 60.8568L244.759 49.0148C244.835 48.5956 244.953 48.185 245.109 47.7885C245.19 47.5141 245.334 47.2623 245.529 47.0528C245.719 46.8573 245.963 46.7231 246.23 46.6674C246.598 46.5788 246.973 46.5202 247.351 46.4922L247.561 45.5462V45.8265ZM254.183 49.3301L253.132 53.7796H253.973H255.024C255.802 53.767 256.578 53.8493 257.336 54.0248C257.982 54.2019 258.588 54.4991 259.123 54.9007C259.642 55.3136 260.042 55.858 260.279 56.4773C260.538 57.2314 260.645 58.0291 260.595 58.8247C260.541 59.7012 260.315 60.5586 259.929 61.3473C259.584 62.0495 259.108 62.6797 258.527 63.2042C257.938 63.6991 257.277 64.1008 256.566 64.3954C255.842 64.6836 255.091 64.895 254.323 65.026C253.483 65.0806 252.641 65.0806 251.801 65.026H245.249L245.494 64.1151C245.864 64.0962 246.23 64.0254 246.58 63.9049C246.842 63.8417 247.076 63.6939 247.246 63.4844C247.448 63.2532 247.593 62.9769 247.666 62.6786C247.823 62.2314 247.951 61.7751 248.052 61.3122L250.89 49.26C251.003 48.8463 251.085 48.4247 251.135 47.9987C251.218 47.7605 251.218 47.5012 251.135 47.263C251.081 47.1642 251.006 47.0786 250.915 47.012C250.824 46.9454 250.72 46.8995 250.609 46.8776C250.266 46.7847 249.914 46.726 249.558 46.7024L249.769 45.7564H257.126L256.881 46.7024C256.503 46.7304 256.128 46.789 255.76 46.8776C255.509 46.9298 255.279 47.0512 255.094 47.2279C254.911 47.4461 254.769 47.6953 254.674 47.9637C254.674 48.314 254.463 48.7345 254.358 49.26L254.183 49.3301ZM252.852 54.9007L251.415 61.2422C251.322 61.7753 251.322 62.3207 251.415 62.8538C251.42 63.0126 251.457 63.1688 251.523 63.3132C251.589 63.4576 251.684 63.5873 251.801 63.6947C252.105 63.8822 252.461 63.9681 252.817 63.9399C253.359 63.9377 253.89 63.7926 254.358 63.5195C254.855 63.2131 255.294 62.8217 255.655 62.3633C256.046 61.8548 256.353 61.2871 256.566 60.6816C256.808 60.0398 256.961 59.3679 257.021 58.6846C257.087 57.9257 256.991 57.1616 256.741 56.4423C256.539 55.9266 256.168 55.4944 255.69 55.216C255.196 54.9462 254.64 54.8131 254.078 54.8307H252.992L252.852 54.9007ZM282.737 45.8265H275.274L275.029 46.7725C275.385 46.796 275.737 46.8547 276.08 46.9477C276.193 46.9645 276.299 47.0084 276.391 47.0755C276.482 47.1427 276.556 47.231 276.606 47.333C276.686 47.5837 276.686 47.8532 276.606 48.1038C276.606 48.4191 276.606 48.8746 276.396 49.4001L275.239 54.165H269.248L270.334 49.4001C270.334 48.8746 270.58 48.4191 270.685 48.1038C270.773 47.8217 270.916 47.5598 271.105 47.333C271.26 47.1471 271.468 47.0126 271.701 46.9477C272.034 46.8603 272.374 46.8017 272.717 46.7725L272.962 45.8265H265.465L265.219 46.7725C265.609 46.7975 265.996 46.8562 266.375 46.9477C266.501 46.9663 266.622 47.01 266.73 47.0762C266.838 47.1424 266.932 47.2298 267.006 47.333C267.151 47.5625 267.212 47.8344 267.181 48.1038C267.132 48.5414 267.05 48.9747 266.936 49.4001L264.063 61.4524C263.968 61.9052 263.839 62.3502 263.678 62.7837C263.604 63.0716 263.459 63.3365 263.257 63.5545C263.084 63.7603 262.852 63.9072 262.592 63.9749C262.219 64.0082 261.843 64.0082 261.47 63.9749L261.225 64.9209H268.758L268.968 63.9749C268.607 64.0058 268.243 64.0058 267.882 63.9749C267.667 63.894 267.483 63.7468 267.356 63.5545C267.278 63.3035 267.278 63.0347 267.356 62.7837C267.405 62.3345 267.487 61.8896 267.602 61.4524L268.968 55.6014H275.099L273.768 61.4524C273.677 61.914 273.56 62.3702 273.418 62.8188C273.311 63.0999 273.157 63.3606 272.962 63.5895C272.781 63.7776 272.55 63.9111 272.296 63.9749C271.923 64.0049 271.548 64.0049 271.175 63.9749L270.93 64.9209H278.498L278.778 63.9749C278.405 64.0082 278.03 64.0082 277.657 63.9749C277.412 63.9165 277.198 63.766 277.061 63.5545C276.994 63.3019 276.994 63.0363 277.061 62.7837C277.113 62.335 277.195 61.8902 277.307 61.4524L280.179 49.4001C280.248 48.9564 280.365 48.5216 280.53 48.1038C280.607 47.8244 280.738 47.5626 280.915 47.333C281.11 47.1438 281.352 47.0106 281.616 46.9477C281.996 46.8562 282.382 46.7975 282.772 46.7725L283.017 45.8265H282.737ZM289.289 49.3301L288.273 53.8847H289.079H290.06C290.84 53.8656 291.619 53.9601 292.372 54.165C293.023 54.3269 293.632 54.6255 294.159 55.0409C294.658 55.4646 295.044 56.0066 295.28 56.6175C295.528 57.3615 295.624 58.148 295.56 58.9298C295.509 59.8026 295.295 60.6582 294.929 61.4524C294.596 62.1424 294.132 62.7611 293.563 63.2742C292.99 63.7827 292.339 64.1966 291.636 64.5005C290.908 64.8018 290.141 65.0022 289.359 65.0961C288.502 65.2399 287.635 65.3102 286.766 65.3063H280.285L280.53 64.3954C280.911 64.3757 281.288 64.305 281.651 64.1852C281.904 64.1213 282.135 63.9878 282.317 63.7998C282.512 63.5638 282.655 63.2892 282.737 62.9939C282.881 62.5695 282.998 62.1366 283.087 61.6976L285.96 49.4352C285.96 48.9447 286.136 48.5243 286.171 48.244C286.248 48.0049 286.248 47.7473 286.171 47.5082C286.121 47.4062 286.047 47.3178 285.955 47.2507C285.864 47.1836 285.757 47.1397 285.645 47.1228C285.301 47.0299 284.949 46.9712 284.594 46.9477L284.839 46.0367H292.162L291.916 46.9477C291.55 46.9746 291.187 47.0333 290.83 47.1228C290.577 47.1867 290.346 47.3202 290.165 47.5082C289.963 47.6986 289.817 47.9411 289.744 48.2089C289.744 48.5243 289.534 48.9096 289.394 49.4352L289.289 49.3301ZM306.316 45.8265H298.783L298.538 46.7374C298.928 46.7654 299.314 46.8239 299.694 46.9126C299.809 46.9343 299.919 46.9797 300.015 47.0461C300.112 47.1125 300.193 47.1983 300.255 47.298C300.305 47.4079 300.331 47.5274 300.331 47.6484C300.331 47.7693 300.305 47.8888 300.255 47.9987C300.239 48.4035 300.168 48.8042 300.045 49.1899L297.137 61.5925C297.043 62.0076 296.926 62.417 296.786 62.8188C296.705 63.1037 296.561 63.367 296.366 63.5895C296.177 63.7765 295.95 63.92 295.7 64.01C295.344 64.0995 294.981 64.1582 294.614 64.1852L294.369 65.0961H301.937L302.147 64.1852C301.769 64.1572 301.394 64.0986 301.026 64.01C300.801 63.9292 300.606 63.7827 300.465 63.5895C300.403 63.3364 300.403 63.0719 300.465 62.8188C300.513 62.4039 300.595 61.9937 300.71 61.5925L303.618 49.0498C303.701 48.6472 303.807 48.2495 303.934 47.8586C304.037 47.6048 304.179 47.3684 304.354 47.1579C304.536 46.9698 304.766 46.8363 305.02 46.7725C305.388 46.6839 305.763 46.6253 306.141 46.5973L306.351 45.6864L306.316 45.8265ZM287.992 54.9007L286.521 61.2772C286.39 61.7922 286.331 62.3227 286.346 62.8538C286.358 63.1842 286.496 63.4976 286.731 63.7297C287.008 63.9195 287.343 64.0063 287.677 63.9749C288.224 63.9769 288.76 63.8185 289.219 63.5195C289.722 63.2222 290.162 62.8295 290.515 62.3633C290.907 61.8425 291.214 61.2631 291.426 60.6466C291.673 60.0201 291.815 59.3572 291.846 58.6846C291.912 57.9257 291.817 57.1616 291.566 56.4423C291.369 55.9254 291.013 55.484 290.55 55.181C290.076 54.9273 289.546 54.7949 289.008 54.7956H288.483H287.992V54.9007ZM325.165 45.8265L324.92 46.7725C324.54 46.7824 324.163 46.8413 323.799 46.9477C323.545 47.0115 323.315 47.145 323.133 47.333C322.924 47.5785 322.769 47.8649 322.678 48.1739C322.519 48.668 322.391 49.1711 322.292 49.6804L319.559 61.067C319.413 61.5835 319.308 62.1106 319.244 62.6436C319.145 62.9272 319.145 63.2359 319.244 63.5195C319.363 63.7395 319.565 63.9032 319.805 63.9749C320.178 64.0082 320.553 64.0082 320.926 63.9749L320.716 64.9209H313.498L313.744 63.9749C314.082 64.0035 314.421 64.0035 314.76 63.9749C315.004 63.8769 315.22 63.7205 315.39 63.5195C315.598 63.2604 315.753 62.9627 315.846 62.6436C315.846 62.2582 316.126 61.7327 316.301 61.067L319.244 49.0498L310.17 63.4144C310.044 63.6134 309.938 63.8247 309.855 64.045C309.839 64.2432 309.839 64.4424 309.855 64.6406V65.0961H303.934L304.179 64.1501C304.529 64.1784 304.88 64.1784 305.23 64.1501C305.499 64.0625 305.741 63.9054 305.931 63.6947C306.131 63.4308 306.285 63.1346 306.386 62.8188C306.386 62.3983 306.666 61.8728 306.842 61.2071L309.504 50.1009C309.648 49.5719 309.753 49.0333 309.82 48.4892C309.918 48.1936 309.918 47.8739 309.82 47.5783C309.768 47.4705 309.694 47.3745 309.604 47.2962C309.514 47.2178 309.408 47.1588 309.294 47.1228C308.938 47.0333 308.574 46.9746 308.208 46.9477L308.488 46.0017H315.776L315.495 46.9477C315.141 46.9773 314.789 47.0358 314.444 47.1228C314.204 47.212 313.988 47.356 313.814 47.5433C313.6 47.8117 313.445 48.122 313.358 48.4542C313.358 48.8746 313.078 49.4001 312.903 50.0658L310.03 61.7327L319.069 47.4382C319.199 47.2793 319.305 47.1023 319.384 46.9126C319.399 46.7611 319.399 46.6086 319.384 46.4572V46.0017L325.165 45.8265ZM320.575 40.2559C320.345 40.6963 320.062 41.1079 319.735 41.4821C319.464 41.8264 319.116 42.1024 318.719 42.2879C318.321 42.5028 317.874 42.6114 317.422 42.6032C317.04 42.6218 316.662 42.524 316.336 42.323C316.085 42.1341 315.91 41.8601 315.846 41.5522C315.774 41.1466 315.774 40.7315 315.846 40.3259H315.04L314.795 40.7464C314.657 40.9689 314.54 41.2034 314.444 41.4471C314.342 41.682 314.271 41.9294 314.234 42.1828C314.223 42.5752 314.32 42.9631 314.514 43.304C314.697 43.6852 314.99 44.0027 315.355 44.2149C315.822 44.4496 316.339 44.5697 316.862 44.5652C317.54 44.5841 318.213 44.4399 318.824 44.1448C319.449 43.85 319.99 43.4045 320.4 42.8485C320.947 42.1593 321.363 41.3755 321.627 40.5361L320.575 40.2559Z" fill="white"/>
<path fill-rule="evenodd" clip-rule="evenodd" d="M120.908 80.2665C121.258 79.2855 121.538 78.4797 121.819 77.8841C122.042 77.3507 122.363 76.8636 122.765 76.4476C123.115 76.0978 123.549 75.8444 124.026 75.7119C124.664 75.5196 125.323 75.402 125.988 75.3615L126.549 73.7149H113.27L112.71 75.3615C113.419 75.4 114.122 75.5056 114.812 75.6768C115.007 75.7286 115.189 75.8209 115.346 75.9477C115.502 76.0745 115.631 76.2329 115.723 76.4126C115.862 76.8813 115.862 77.3803 115.723 77.849C115.723 78.4447 115.302 79.2505 114.952 80.2665L107.629 101.078C107.37 101.888 107.065 102.683 106.718 103.46C106.495 103.993 106.174 104.481 105.772 104.897C105.423 105.23 105.004 105.481 104.546 105.632C103.915 105.805 103.271 105.922 102.619 105.983L101.954 107.594H115.092L115.723 105.983C115.07 105.935 114.423 105.818 113.796 105.632C113.603 105.574 113.425 105.475 113.274 105.342C113.123 105.209 113.002 105.045 112.92 104.861C112.776 104.393 112.776 103.893 112.92 103.425C112.92 102.829 113.305 102.024 113.62 101.078L117.439 90.2516C117.868 90.1771 118.307 90.1771 118.736 90.2516C119.137 90.3582 119.494 90.5917 119.752 90.9173C120.078 91.3591 120.283 91.8784 120.347 92.4238C120.447 93.2969 120.447 94.1785 120.347 95.0515C120.347 96.0675 120.347 97.0135 120.347 97.8193C120.347 98.6251 120.347 99.431 120.347 100.132C120.347 100.832 120.347 101.533 120.347 102.199C120.344 102.996 120.403 103.793 120.522 104.581C120.619 105.167 120.833 105.727 121.153 106.228C121.476 106.671 121.929 107.001 122.449 107.174C123.152 107.391 123.887 107.486 124.622 107.454H129.106L129.702 105.842C129.13 105.789 128.573 105.635 128.055 105.387C127.637 105.107 127.318 104.703 127.144 104.231C126.896 103.472 126.754 102.682 126.724 101.883C126.724 100.867 126.724 99.9215 126.514 99.0105C126.303 98.0996 126.514 97.2938 126.514 96.558C126.514 95.8223 126.514 95.2267 126.514 94.7362C126.494 93.75 126.292 92.7759 125.918 91.8633C125.661 91.1663 125.241 90.5414 124.692 90.0414C124.21 89.5956 123.652 89.2397 123.045 88.9904L124.446 88.1845C125.132 87.7141 125.777 87.1867 126.373 86.6079C127.264 85.765 128.084 84.8511 128.826 83.8752C129.912 82.4037 130.823 81.2475 131.524 80.3716C132.224 79.4957 132.82 78.76 133.275 78.2695C133.647 77.8602 134.085 77.5166 134.572 77.2534C134.953 77.0659 135.373 76.97 135.798 76.9732H136.639C136.954 76.9668 137.264 76.8953 137.55 76.7629C137.848 76.5933 138.119 76.3808 138.356 76.1323C138.586 75.8567 138.754 75.5338 138.846 75.1863C138.954 74.8442 138.954 74.4774 138.846 74.1353C138.726 73.8057 138.489 73.5315 138.18 73.3645C137.778 73.166 137.333 73.0698 136.884 73.0842C136.236 73.1023 135.6 73.2701 135.027 73.5747C134.284 74.0084 133.611 74.5517 133.03 75.1863C132.171 76.082 131.397 77.0555 130.718 78.0943C129.807 79.3906 129.036 80.5118 128.335 81.4227C127.635 82.3336 127.074 83.1394 126.549 83.8051C126.081 84.3847 125.578 84.9347 125.042 85.4518C124.621 85.8976 124.164 86.3078 123.676 86.678C123.14 87.1681 122.539 87.5809 121.889 87.9043C121.325 88.18 120.722 88.369 120.102 88.4648C119.431 88.5814 118.751 88.64 118.07 88.64L121.013 80.3015L120.908 80.2665ZM156.679 73.0492C158.291 73.0093 159.89 73.3577 161.339 74.0652C162.614 74.7039 163.674 75.7028 164.387 76.9381C165.184 78.2737 165.675 79.7695 165.823 81.3176C166.028 83.198 165.957 85.0983 165.613 86.9583C165.242 89.2124 164.631 91.4204 163.791 93.545C162.947 95.5954 161.877 97.5459 160.603 99.3609C159.396 101.1 157.971 102.678 156.364 104.056C154.86 105.359 153.157 106.411 151.319 107.174C149.517 107.912 147.59 108.292 145.643 108.295C144.07 108.321 142.511 107.986 141.088 107.314C139.833 106.698 138.767 105.754 138.005 104.581C137.165 103.293 136.626 101.832 136.429 100.307C136.151 98.472 136.151 96.606 136.429 94.7712C136.821 92.4268 137.479 90.1348 138.391 87.9393C139.263 85.8265 140.368 83.8171 141.684 81.9482C142.928 80.206 144.388 78.6285 146.028 77.2534C147.537 75.9576 149.24 74.9055 151.073 74.1353C152.822 73.429 154.688 73.0605 156.574 73.0492H156.679ZM156.049 75.1163C154.912 75.1565 153.818 75.5619 152.93 76.2725C151.719 77.1631 150.654 78.2391 149.777 79.4607C148.651 80.898 147.677 82.4478 146.869 84.0854C145.922 85.9578 145.125 87.9025 144.487 89.9013C143.786 92.0177 143.247 94.1845 142.875 96.3829C142.68 97.6474 142.562 98.9228 142.525 100.202C142.514 101.242 142.644 102.279 142.91 103.285C143.108 104.089 143.534 104.819 144.136 105.387C144.739 105.902 145.517 106.166 146.309 106.123C147.328 106.099 148.317 105.77 149.147 105.177C150.186 104.461 151.118 103.599 151.914 102.619C152.851 101.432 153.683 100.166 154.402 98.8353C156.044 95.8645 157.337 92.7137 158.256 89.4458C158.723 87.8715 159.086 86.268 159.342 84.6459C159.563 83.4901 159.692 82.3186 159.727 81.1424C159.787 80.1065 159.692 79.0675 159.447 78.0593C159.277 77.2472 158.889 76.4965 158.326 75.8871C157.681 75.3696 156.875 75.0966 156.049 75.1163ZM199.247 73.5747H175.844L175.283 75.2214C176.012 75.2723 176.737 75.3659 177.455 75.5017C177.865 75.5768 178.243 75.7719 178.541 76.0622C178.647 76.2133 178.721 76.3847 178.757 76.5657C178.793 76.7466 178.791 76.9331 178.752 77.1133C178.682 77.6779 178.541 78.2313 178.331 78.76C177.21 82.0533 176.019 85.1014 174.828 87.8342C173.636 90.567 172.48 93.0194 171.324 95.1566C170.389 97.0654 169.336 98.9141 168.171 100.692C167.435 101.708 166.699 102.619 166.034 103.39C165.378 104.123 164.675 104.813 163.932 105.457C163.247 106.067 162.521 106.629 161.759 107.139L161.514 107.98C161.872 108.151 162.248 108.28 162.635 108.365C163.116 108.491 163.61 108.562 164.107 108.575C164.752 108.523 165.371 108.292 165.894 107.91C166.601 107.401 167.237 106.8 167.785 106.123C168.896 104.834 169.892 103.45 170.763 101.989C171.744 100.377 172.69 98.485 173.636 96.7332C174.582 94.9814 175.528 92.8443 176.404 90.7421C177.28 88.64 178.121 86.6079 178.927 84.4708C179.733 82.3336 180.433 80.3366 181.134 78.3045C181.269 77.8119 181.445 77.3314 181.66 76.8681C181.793 76.5567 181.997 76.2807 182.255 76.0622C182.541 75.8946 182.872 75.821 183.201 75.852H187.756C188.052 75.7603 188.37 75.7603 188.667 75.852C188.761 75.9312 188.829 76.0378 188.86 76.157C188.892 76.2762 188.885 76.4023 188.842 76.5177C188.758 77.0113 188.617 77.4934 188.421 77.9542L180.433 100.657C180.013 101.743 179.663 102.654 179.382 103.32C179.142 103.884 178.811 104.405 178.401 104.861C178.053 105.222 177.619 105.487 177.14 105.632C176.497 105.804 175.841 105.922 175.178 105.983L174.617 107.594H187.826L188.386 105.983C187.722 105.935 187.064 105.817 186.424 105.632C186.228 105.581 186.047 105.485 185.895 105.351C185.743 105.217 185.624 105.049 185.548 104.861C185.413 104.357 185.413 103.825 185.548 103.32C185.724 102.654 186.004 101.743 186.389 100.657L193.396 79.8461C193.636 79.1018 193.928 78.3758 194.272 77.6739C194.48 77.1803 194.777 76.729 195.148 76.3425C195.529 76.0322 195.971 75.8054 196.445 75.6768C197.112 75.5132 197.791 75.4077 198.477 75.3615L199.037 73.7149L199.247 73.5747ZM227.731 73.5747L227.171 75.2214C226.486 75.2704 225.806 75.3758 225.139 75.5367C224.672 75.657 224.24 75.885 223.877 76.2024C223.495 76.5864 223.186 77.0378 222.966 77.5337C222.636 78.2374 222.355 78.9633 222.126 79.7059L215.119 100.517C214.733 101.603 214.453 102.514 214.278 103.18C214.137 103.684 214.137 104.217 214.278 104.721C214.342 104.916 214.457 105.09 214.611 105.225C214.765 105.361 214.952 105.453 215.154 105.492C215.781 105.678 216.427 105.795 217.08 105.842L216.52 107.454H203.206L203.767 105.842C204.431 105.788 205.088 105.671 205.729 105.492C206.216 105.365 206.655 105.097 206.99 104.721C207.4 104.265 207.731 103.744 207.971 103.18C208.287 102.514 208.637 101.603 209.022 100.517L216.835 77.9542C217.031 77.4934 217.172 77.0113 217.256 76.5177C217.314 76.4165 217.345 76.3017 217.345 76.1849C217.345 76.068 217.314 75.9532 217.256 75.852C216.959 75.7624 216.642 75.7624 216.345 75.852H211.65C211.332 75.8212 211.012 75.895 210.739 76.0622C210.46 76.2607 210.251 76.543 210.143 76.8681C209.915 77.3295 209.727 77.8102 209.583 78.3045C208.917 80.3366 208.181 82.3686 207.376 84.4708C206.57 86.5729 205.764 88.675 204.853 90.7421C203.942 92.8092 203.066 94.8063 202.12 96.7332C201.174 98.6602 200.193 100.237 199.212 101.989C198.318 103.444 197.311 104.826 196.199 106.123C195.642 106.792 195.007 107.392 194.307 107.91C193.838 108.276 193.284 108.517 192.696 108.61C192.211 108.595 191.729 108.524 191.259 108.4C190.861 108.315 190.473 108.185 190.103 108.015L190.348 107.174C191.121 106.664 191.859 106.102 192.556 105.492C193.288 104.848 193.978 104.157 194.623 103.425C195.384 102.565 196.097 101.665 196.76 100.727C198.039 99.0039 199.21 97.2018 200.263 95.3318C201.554 92.9514 202.723 90.5075 203.767 88.0094C204.958 85.2766 206.149 82.2285 207.271 78.9352C207.447 78.3963 207.588 77.8462 207.691 77.2885C207.745 76.9197 207.658 76.5441 207.446 76.2374C207.153 75.9397 206.772 75.7433 206.36 75.6768C205.653 75.5407 204.94 75.4471 204.222 75.3966L204.783 73.7499H227.731V73.5747ZM231.235 73.5747L230.604 75.2214C231.257 75.2686 231.903 75.386 232.531 75.5717C232.729 75.6044 232.916 75.6812 233.08 75.7965C233.244 75.9117 233.38 76.0625 233.477 76.2374C233.624 76.681 233.624 77.1602 233.477 77.6038C233.302 78.4254 233.068 79.2333 232.776 80.0213L225.629 101.008C225.364 101.878 225.048 102.732 224.683 103.565C224.465 104.101 224.144 104.589 223.737 105.002C223.365 105.325 222.921 105.553 222.441 105.667L220.374 105.983L219.743 107.594H242.061L242.762 106.368C243.042 105.842 243.357 105.282 243.673 104.651C243.988 104.021 244.338 103.425 244.654 102.794C244.969 102.164 245.284 101.568 245.564 101.043C245.845 100.517 246.055 100.027 246.265 99.6412L244.794 99.0105C244.13 99.9809 243.417 100.916 242.656 101.813C242.1 102.513 241.479 103.159 240.8 103.74C240.071 104.397 239.193 104.866 238.242 105.107C237.194 105.402 236.108 105.544 235.019 105.527C234.138 105.548 233.257 105.478 232.391 105.317C232.159 105.304 231.932 105.241 231.726 105.132C231.521 105.023 231.341 104.871 231.2 104.686C231.014 104.447 230.927 104.147 230.955 103.845C230.976 103.384 231.046 102.926 231.165 102.479C231.165 101.918 231.515 101.183 231.795 100.342L235.089 91.0925H238.242C238.965 91.0267 239.692 91.0267 240.414 91.0925C240.62 91.1159 240.82 91.1807 241 91.283C241.181 91.3854 241.339 91.5232 241.465 91.6881C241.694 92.0789 241.781 92.537 241.71 92.9844C241.668 93.7393 241.563 94.4894 241.395 95.2267H243.042L246.756 84.716H245.249C244.759 85.6269 244.338 86.3277 243.988 86.8882C243.71 87.3544 243.34 87.7596 242.902 88.0794C242.48 88.3522 242 88.5203 241.5 88.5699C240.765 88.6138 240.028 88.6138 239.293 88.5699H236L239.749 77.6038C239.878 77.177 240.054 76.7657 240.274 76.3776C240.338 76.238 240.43 76.1131 240.545 76.0106C240.66 75.9081 240.794 75.8303 240.94 75.7819C241.322 75.7179 241.713 75.7179 242.096 75.7819H244.689C245.353 75.7166 246.021 75.7166 246.686 75.7819C247.091 75.8161 247.479 75.9616 247.807 76.2024C248.068 76.4328 248.252 76.7389 248.332 77.0783C248.553 77.6713 248.648 78.3035 248.613 78.9352C248.605 79.8149 248.535 80.6931 248.402 81.5628H249.979C250.166 80.8621 250.376 80.1264 250.61 79.3556L251.24 77.0783C251.45 76.3075 251.661 75.6418 251.836 75.0462C252.011 74.4506 252.116 73.9951 252.221 73.6798L231.235 73.5747ZM283.193 73.5747L282.632 75.2915C281.935 75.3111 281.242 75.4051 280.565 75.5717C280.061 75.7076 279.602 75.9734 279.234 76.3425C278.824 76.7923 278.503 77.3153 278.288 77.8841C277.972 78.5848 277.657 79.4957 277.272 80.6169L269.774 103.11C269.578 103.619 269.437 104.147 269.354 104.686C269.323 104.809 269.33 104.938 269.374 105.057C269.417 105.176 269.496 105.278 269.599 105.352C269.886 105.425 270.187 105.425 270.475 105.352H273.278L268.057 116.493H266.27L267.532 109.837C267.601 109.36 267.601 108.876 267.532 108.4C267.548 108.261 267.527 108.119 267.472 107.99C267.417 107.861 267.328 107.749 267.216 107.664C266.956 107.5 266.648 107.426 266.34 107.454H252.011C251.501 107.44 250.991 107.511 250.504 107.664C250.073 107.825 249.688 108.09 249.383 108.435C248.936 108.933 248.537 109.473 248.192 110.047L244.128 116.493H242.516L246.265 105.352H248.367C248.717 105.357 249.064 105.286 249.383 105.142C249.766 104.901 250.089 104.578 250.329 104.196C251.133 103.072 251.87 101.903 252.536 100.692C253.342 99.2908 254.148 97.6792 255.024 95.9274C255.9 94.1756 256.706 92.4238 257.582 90.3567C258.457 88.2897 259.228 86.4328 259.999 84.4708C260.77 82.5088 261.436 80.5818 262.031 78.76C262.235 78.2052 262.376 77.6294 262.452 77.0432C262.477 76.8656 262.454 76.6845 262.386 76.5183C262.319 76.3521 262.208 76.2069 262.066 76.0973C261.647 75.8208 261.165 75.6523 260.665 75.6068L258.773 75.2915L259.263 73.5747H283.193ZM263.608 102.654L272.121 78.1293C272.324 77.5837 272.476 77.0208 272.577 76.4476C272.577 76.0622 272.577 75.782 272.577 75.6768C272.274 75.5247 271.933 75.4639 271.596 75.5017H267.041C266.706 75.4356 266.361 75.4356 266.025 75.5017C265.891 75.5563 265.77 75.6371 265.667 75.7394C265.565 75.8417 265.484 75.9633 265.43 76.0973C265.201 76.5221 265.013 76.9679 264.869 77.4286C264.379 78.8651 263.818 80.4066 263.187 82.1234C262.557 83.8401 261.891 85.6269 261.155 87.4838C260.42 89.3407 259.614 91.2326 258.808 93.1246C258.002 95.0165 257.091 96.9084 256.215 98.7302C255.339 100.552 254.393 102.234 253.412 103.986C253.167 104.371 253.062 104.651 253.132 104.861C253.202 105.072 253.482 105.142 253.938 105.142H260.595C261.071 105.157 261.546 105.086 261.996 104.932C262.366 104.762 262.672 104.48 262.872 104.126C263.208 103.58 263.467 102.99 263.643 102.374L263.608 102.654ZM306.561 80.5818C306.947 79.5308 307.262 78.6899 307.577 78.0242C307.801 77.4803 308.121 76.9816 308.523 76.5527C308.862 76.1885 309.301 75.9325 309.785 75.817C310.435 75.6251 311.105 75.5076 311.782 75.4666L312.342 73.7149H299.134L298.573 75.4666C299.263 75.4982 299.945 75.6159 300.605 75.817C300.801 75.8563 300.984 75.9443 301.137 76.0728C301.29 76.2014 301.409 76.3665 301.481 76.5527C301.623 77.0329 301.623 77.544 301.481 78.0242C301.481 78.6899 301.061 79.5308 300.675 80.5818L297.802 88.5699C297.203 88.5532 296.606 88.4947 296.016 88.3948C295.518 88.3156 295.041 88.1368 294.614 87.8692C294.169 87.538 293.809 87.1057 293.563 86.6079C293.254 86.0397 293.041 85.4241 292.933 84.7861C292.745 83.9082 292.616 83.0186 292.547 82.1234C292.547 81.0373 292.337 79.7059 292.232 78.1644C292.27 76.7999 291.956 75.4485 291.321 74.2404C291.072 73.8504 290.722 73.5342 290.31 73.3247C289.897 73.1152 289.435 73.0201 288.973 73.0492C288.408 73.0355 287.847 73.143 287.327 73.3645C286.883 73.5203 286.485 73.7854 286.171 74.1353C285.901 74.4071 285.707 74.7456 285.61 75.1163C285.53 75.5684 285.631 76.0339 285.89 76.4126C286.005 76.5836 286.162 76.7219 286.347 76.814C286.531 76.9061 286.736 76.9489 286.941 76.9381H287.887C288.276 76.9161 288.664 77.0009 289.009 77.1834C289.355 77.3891 289.616 77.7123 289.744 78.0943C289.975 78.7636 290.128 79.4572 290.2 80.1614C290.2 81.1074 290.48 82.2986 290.62 83.665C290.708 84.5763 290.872 85.4786 291.111 86.3627C291.28 86.9315 291.527 87.474 291.846 87.9743C292.037 88.2885 292.286 88.5623 292.582 88.7801V88.9553C291.232 89.3069 289.952 89.8875 288.798 90.6721C287.48 91.6111 286.3 92.7317 285.295 94.0004C284.839 94.596 284.314 95.2617 283.753 96.1026L281.896 98.8353C281.266 99.8514 280.53 100.867 279.829 101.918C279.288 102.77 278.666 103.568 277.972 104.301C277.542 104.787 277.017 105.18 276.431 105.457C275.9 105.71 275.332 105.876 274.749 105.948L274.153 107.454H279.199C280.114 107.473 281.022 107.294 281.861 106.929C282.672 106.553 283.39 106.003 283.963 105.317C284.696 104.485 285.341 103.581 285.89 102.619C286.311 101.954 286.731 101.183 287.222 100.342L288.728 97.7142L290.445 94.9114C291.018 94.0089 291.663 93.1536 292.372 92.3538C292.867 91.8027 293.432 91.3197 294.054 90.9173C294.554 90.6228 295.098 90.41 295.665 90.2867C296.213 90.2332 296.764 90.2332 297.312 90.2867L293.808 100.797C293.522 101.658 293.183 102.501 292.792 103.32C292.552 103.884 292.221 104.405 291.811 104.861C291.444 105.222 291.001 105.497 290.515 105.667C289.92 105.841 289.31 105.958 288.693 106.018L288.028 107.629H301.131L301.797 106.018C301.132 105.97 300.474 105.852 299.835 105.667C299.641 105.608 299.465 105.504 299.318 105.364C299.173 105.224 299.061 105.052 298.994 104.861C298.835 104.36 298.835 103.822 298.994 103.32C299.191 102.462 299.449 101.619 299.764 100.797L303.268 90.2867C303.722 90.2295 304.181 90.2295 304.634 90.2867C305.06 90.3816 305.443 90.6158 305.721 90.9523C306.072 91.3867 306.302 91.9066 306.386 92.4589C306.487 93.3201 306.487 94.1903 306.386 95.0515C306.386 96.0675 306.386 97.0135 306.386 97.8193C306.386 98.6251 306.386 99.431 306.386 100.132V102.199C306.325 102.992 306.325 103.788 306.386 104.581C306.471 105.165 306.674 105.725 306.982 106.228C307.29 106.67 307.732 107.001 308.243 107.174C308.921 107.395 309.633 107.49 310.345 107.454H314.97L315.46 105.948C314.851 105.892 314.258 105.726 313.709 105.457C313.262 105.193 312.935 104.766 312.798 104.266C312.564 103.492 312.434 102.691 312.412 101.883C312.412 100.867 312.412 99.8864 312.412 98.9755C312.412 98.0646 312.412 97.1887 312.412 96.4529C312.412 95.7172 312.412 95.0865 312.412 94.596C312.389 93.6103 312.187 92.6369 311.817 91.7231C311.537 91.0483 311.12 90.4396 310.59 89.9363C310.089 89.5177 309.52 89.1861 308.909 88.9553V88.7801C309.294 88.605 309.785 88.3247 310.38 87.9743C311.059 87.509 311.692 86.9812 312.272 86.3977C313.115 85.5755 313.889 84.6849 314.584 83.735C315.671 82.2635 316.582 81.1074 317.317 80.2315C317.879 79.4927 318.488 78.7906 319.139 78.1293C319.515 77.7101 319.967 77.3654 320.47 77.1133C320.866 76.9298 321.296 76.8341 321.732 76.833H322.678C322.997 76.8295 323.311 76.7451 323.589 76.5878C323.901 76.4404 324.176 76.2249 324.394 75.9571C324.638 75.6901 324.807 75.3639 324.885 75.0112C324.923 74.7529 324.902 74.4892 324.823 74.2403C324.744 73.9914 324.61 73.7637 324.429 73.5747C324.197 73.3565 323.92 73.1905 323.618 73.0878C323.316 72.9851 322.995 72.948 322.678 72.9791C321.994 72.9833 321.321 73.1515 320.716 73.4696C319.942 73.8882 319.243 74.4329 318.649 75.0812C317.788 75.9972 317.003 76.9814 316.301 78.0242C315.425 79.3205 314.62 80.4417 313.954 81.3526C313.288 82.2635 312.728 83.0343 312.202 83.665C311.677 84.2956 311.221 84.8562 310.801 85.3116L309.469 86.5379C308.901 86.9919 308.291 87.3907 307.647 87.7291C307.088 87.984 306.5 88.1721 305.896 88.2896C305.176 88.4029 304.451 88.4731 303.723 88.4999L306.561 80.5818Z" fill="white"/>
</g>
<defs>
<clipPath id="clip0_78_76">
<rect width="330" height="149.006" fill="white"/>
</clipPath>
</defs>
</svg>
