<svg width="40" height="22" viewBox="0 0 40 22" fill="none" xmlns="http://www.w3.org/2000/svg">
<path d="M1.81818 12.8182H33.7924L27.8052 18.8053C27.0952 19.5153 27.0952 20.6665 27.8052 21.3766C28.1602 21.7315 28.6256 21.9091 29.0909 21.9091C29.5562 21.9091 30.0216 21.7315 30.3765 21.3765L39.4674 12.2856C40.1775 11.5756 40.1775 10.4244 39.4674 9.71431L30.3765 0.623397C29.6665 -0.0865425 28.5153 -0.0865425 27.8052 0.623397C27.0952 1.33334 27.0952 2.48461 27.8052 3.19467L33.7924 9.18182H1.81818C0.814061 9.18182 0 9.99588 0 11C0 12.0041 0.814061 12.8182 1.81818 12.8182Z" fill="#0085FF"/>
</svg>
