<svg width="31" height="31" viewBox="0 0 31 31" fill="none" xmlns="http://www.w3.org/2000/svg">
<path d="M15.6 0.2C23.9946 0.2 30.8 7.00545 30.8 15.4C30.8 23.7945 23.9946 30.6 15.6 30.6C7.20548 30.6 0.400024 23.7945 0.400024 15.4C0.400024 7.00545 7.20548 0.2 15.6 0.2ZM20.8433 21.5961C21.1225 20.7387 22.4331 12.1893 22.5941 10.5042C22.6432 9.99433 22.4815 9.65509 22.1664 9.50309C21.7844 9.32 21.2192 9.4112 20.5621 9.64818C19.6619 9.97291 8.15479 14.8583 7.49013 15.1416C6.86002 15.4097 6.26377 15.7012 6.26377 16.1248C6.26377 16.4225 6.44064 16.5897 6.92704 16.7632C7.43279 16.9435 8.70751 17.3297 9.4613 17.5377C10.1868 17.738 11.011 17.5639 11.4739 17.2765C11.9638 16.9718 17.6237 13.1856 18.0293 12.8533C18.4348 12.5217 18.7589 12.9466 18.4272 13.2789C18.0956 13.6105 14.2113 17.3808 13.6986 17.9032C13.0761 18.5367 13.5176 19.1938 13.9356 19.457C14.4117 19.7576 17.8386 22.0555 18.3547 22.4245C18.8708 22.7934 19.3938 22.9606 19.8733 22.9606C20.3528 22.9599 20.605 22.3284 20.8433 21.5961Z" fill="white"/>
</svg>
