<svg width="206" height="93" viewBox="0 0 206 93" fill="none" xmlns="http://www.w3.org/2000/svg">
<g clip-path="url(#clip0_50_81)">
<path fill-rule="evenodd" clip-rule="evenodd" d="M67.3225 43.1728C64.1156 51.1573 61.2578 58.6181 58.0728 66.5808C36.2573 67.0389 27.9238 77.6194 15.7289 90.0106L32.1778 51.659C36.9554 59.1635 40.904 59.8398 42.4311 57.3092C44.9398 53.0552 44.1109 44.329 40.7731 39.6823C44.1109 31.5015 47.0341 24.8042 50.3719 16.6016C53.2297 30.5416 58.1382 38.7006 67.3225 43.1728Z" fill="#F3E244" stroke="#1B1B1B" stroke-width="0.57" stroke-miterlimit="22.93"/>
<path fill-rule="evenodd" clip-rule="evenodd" d="M0 49.6519L9.5988 25.6549C31.4143 25.1968 42.1911 12.3475 54.3859 -0.0437012L36.0173 42.7364C31.2397 35.2537 27.5966 32.9849 26.1131 35.5155C23.6261 39.7695 24.4333 48.3212 27.7711 52.9679C24.4333 61.0832 20.9865 69.4386 17.6487 77.6194C14.7909 63.7884 9.18431 54.1241 0 49.6519Z" fill="black"/>
<path fill-rule="evenodd" clip-rule="evenodd" d="M86.3892 10.2533H83.1169L82.8987 10.9078H83.3132C83.446 10.9246 83.5691 10.9862 83.6623 11.0823C83.6909 11.136 83.7059 11.196 83.7059 11.2568C83.7059 11.3177 83.6909 11.3776 83.6623 11.4314C83.5831 11.6455 83.4807 11.8504 83.3569 12.0422L82.3097 13.8311L81.2626 15.5763L80.1718 17.3652L79.6482 11.4968C79.6009 11.3777 79.6009 11.245 79.6482 11.1259C79.7744 11.0071 79.9346 10.9308 80.1064 10.9078H80.5427L80.7172 10.2533H76.5504L76.3541 10.9078C76.5849 10.9311 76.812 10.9823 77.0304 11.0605C77.1839 11.1216 77.3086 11.2385 77.3794 11.3877C77.4564 11.5599 77.5007 11.7448 77.5103 11.9331C77.5103 12.1076 77.5103 12.3694 77.5103 12.7185C77.5103 13.0675 77.5103 13.4602 77.6412 13.9183C77.7721 14.3764 77.6412 14.8782 77.7939 15.38L77.9248 16.8852C77.9248 17.387 78.0339 17.8451 78.0775 18.2814C78.1212 18.7177 78.0775 19.045 78.0775 19.3504C78.0994 19.568 78.0994 19.7872 78.0775 20.0048C78.0599 20.1805 78.008 20.3509 77.9248 20.5066C77.7774 20.7704 77.5769 21.0007 77.3358 21.1829C77.171 21.3418 76.9537 21.4349 76.725 21.4447C76.5678 21.4374 76.4161 21.3843 76.2887 21.292C76.1365 21.1933 75.9973 21.076 75.8742 20.9429C75.8064 20.8495 75.7045 20.7868 75.5906 20.7684C75.4925 20.7295 75.3832 20.7295 75.2851 20.7684C75.1259 20.8837 74.986 21.0236 74.8707 21.1829C74.7608 21.3374 74.6932 21.5178 74.6743 21.7064C74.6291 21.8854 74.6291 22.0728 74.6743 22.2518C74.7727 22.4003 74.908 22.5206 75.067 22.6009C75.2545 22.6747 75.4545 22.7117 75.656 22.71C75.8861 22.7131 76.1149 22.6761 76.3323 22.6009C76.6011 22.4956 76.8514 22.3483 77.074 22.1646C77.3996 21.9193 77.6992 21.6416 77.9685 21.3356C78.3362 20.8974 78.6785 20.4385 78.9938 19.9612C79.2119 19.6558 79.4519 19.2849 79.7137 18.8704L80.8263 17.4524L81.7425 16.0126L82.6151 14.5946L83.4005 13.3511L84.0113 12.4349C84.1762 12.1687 84.3584 11.9136 84.5567 11.6713C84.68 11.4925 84.8267 11.3311 84.993 11.1914C85.1482 11.0827 85.3169 10.9947 85.4948 10.9296C85.7264 10.9023 85.96 10.895 86.1929 10.9078L86.3892 10.3188V10.2533ZM91.385 10.2533L91.1668 10.8642C91.3917 10.8431 91.6182 10.8431 91.8431 10.8642C92.0176 10.8642 92.1267 10.8642 92.1703 11.0823C92.2298 11.2292 92.2298 11.3935 92.1703 11.5404C92.1128 11.8277 92.04 12.1117 91.9522 12.3912L89.5743 20.0485C89.4946 20.3254 89.3924 20.5953 89.2689 20.8556C89.2026 21.0242 89.1066 21.1794 88.9853 21.3138C88.8641 21.4316 88.7134 21.5145 88.549 21.5537C88.3239 21.573 88.0977 21.573 87.8727 21.5537L87.6545 22.1428H92.5194L92.7157 21.5537C92.4543 21.5735 92.1918 21.5735 91.9303 21.5537C91.8096 21.5014 91.7043 21.4187 91.6249 21.3138C91.5734 21.1654 91.5734 21.004 91.6249 20.8556C91.6249 20.6593 91.734 20.3975 91.8431 20.0485L92.7375 17.2125L93.7628 17.5397H93.8065C93.9071 17.5615 94.0113 17.5615 94.1119 17.5397C94.6822 17.4998 95.2422 17.3672 95.7699 17.147C96.2671 16.9448 96.7249 16.6569 97.1224 16.2962C97.5521 15.9656 97.9086 15.5497 98.1696 15.0745C98.4378 14.581 98.6082 14.0402 98.6713 13.482C98.7849 12.9941 98.7849 12.4865 98.6713 11.9986C98.5511 11.6095 98.3244 11.2619 98.0169 10.9951C97.6822 10.7292 97.2959 10.5361 96.8825 10.4279C96.3821 10.3099 95.8695 10.2513 95.3554 10.2533H91.385ZM94.221 12.064C94.221 11.8022 94.3737 11.5841 94.4391 11.4314C94.478 11.3092 94.5543 11.2023 94.6573 11.1259C94.717 11.0336 94.7997 10.9584 94.8973 10.9078H95.2245C95.5022 10.9005 95.7732 10.9934 95.988 11.1696C96.2224 11.356 96.3844 11.6183 96.4461 11.9113C96.5364 12.3282 96.5364 12.7597 96.4461 13.1766C96.384 13.6327 96.2668 14.0795 96.0971 14.5073C95.9391 14.9059 95.7261 15.2803 95.4645 15.6199C95.2311 15.9254 94.9425 16.1844 94.6136 16.3835C94.3215 16.5726 93.98 16.6713 93.632 16.6671H93.152L92.7811 16.5144L94.1773 12.1513L94.221 12.064ZM111.673 21.6628C111.478 21.6852 111.28 21.6852 111.084 21.6628C110.953 21.6195 110.838 21.5355 110.757 21.4228C110.668 21.2777 110.615 21.1129 110.604 20.9429C110.604 20.7466 110.604 20.4848 110.604 20.1794C110.604 18.8704 110.604 17.5833 110.604 16.3617C110.604 15.14 110.604 13.9401 110.604 12.7403V10.1442L109.797 10.3624L103.776 19.7867L103.143 20.7029C102.992 20.8986 102.824 21.0811 102.642 21.2483C102.492 21.3714 102.323 21.4674 102.14 21.5319C101.943 21.603 101.738 21.647 101.529 21.6628L101.333 22.2518H104.889L105.085 21.6628C104.82 21.6497 104.56 21.5829 104.322 21.4665C104.255 21.4383 104.199 21.3887 104.164 21.3255C104.128 21.2623 104.115 21.1891 104.125 21.1174C104.172 20.8953 104.253 20.6819 104.365 20.4848L104.714 19.634L105.107 18.9577C105.226 18.7329 105.358 18.5145 105.5 18.3032H108.379C108.379 18.6305 108.379 18.9795 108.379 19.3504C108.379 19.7212 108.379 20.0921 108.379 20.5066C108.416 20.6939 108.416 20.8865 108.379 21.0738C108.357 21.1483 108.318 21.2166 108.265 21.2734C108.212 21.3301 108.147 21.3738 108.074 21.401C107.864 21.5085 107.633 21.5681 107.398 21.5756L107.179 22.1646H111.542L111.761 21.5756L111.673 21.6628ZM108.466 17.4524H106.067L106.896 16.0999L107.725 14.7691L108.554 13.3948L108.466 17.4524ZM129.344 10.2533H121.076L120.879 10.9078H121.665C121.805 10.9466 121.933 11.0219 122.036 11.1259C122.077 11.1735 122.108 11.2291 122.127 11.2891C122.145 11.3492 122.152 11.4124 122.145 11.475C122.113 11.6738 122.069 11.8704 122.014 12.064C121.643 13.242 121.25 14.2456 120.858 15.2927C120.465 16.3398 120.072 17.1252 119.68 17.8669C119.345 18.5272 118.974 19.1681 118.567 19.7867C118.305 20.1357 118.065 20.463 117.825 20.7247C117.615 20.9923 117.382 21.2406 117.127 21.4665C116.888 21.6813 116.632 21.8782 116.364 22.0555V22.3609C116.495 22.4238 116.635 22.4679 116.778 22.4918C116.952 22.5157 117.128 22.5157 117.302 22.4918C117.53 22.4857 117.751 22.4096 117.934 22.2736C118.169 22.0805 118.388 21.8689 118.589 21.641C118.951 21.1736 119.286 20.6856 119.592 20.1794C119.92 19.6122 120.247 18.9795 120.552 18.3032C120.858 17.627 121.163 16.9289 121.468 16.1217C121.774 15.3145 122.036 14.66 122.297 13.9401C122.559 13.2202 122.799 12.4567 123.017 11.7586C123.053 11.5774 123.112 11.4015 123.192 11.235C123.225 11.1217 123.294 11.0222 123.388 10.9514C123.495 10.9165 123.609 10.9165 123.715 10.9514H125.33C125.436 10.9131 125.551 10.9131 125.657 10.9514C125.657 10.9514 125.657 10.9514 125.657 11.1914C125.657 11.4314 125.657 11.475 125.526 11.6931L122.952 19.7867C122.952 20.1794 122.712 20.4848 122.625 20.7247C122.54 20.9269 122.43 21.1175 122.297 21.292C122.164 21.4089 122.008 21.4979 121.839 21.5537C121.614 21.573 121.388 21.573 121.163 21.5537L120.967 22.1428H125.657L125.832 21.5537C125.599 21.5724 125.366 21.5724 125.133 21.5537C125.068 21.5324 125.007 21.4983 124.955 21.4533C124.902 21.4084 124.859 21.3536 124.828 21.292C124.784 21.1055 124.784 20.9112 124.828 20.7247C124.828 20.4848 124.981 20.1794 125.09 19.7867L127.424 12.4349C127.497 12.1659 127.592 11.9032 127.708 11.6495C127.773 11.4752 127.877 11.3184 128.013 11.1914C128.134 11.0736 128.285 10.9906 128.449 10.9514C128.689 10.9327 128.93 10.9327 129.169 10.9514L129.344 10.3624V10.2533ZM137.743 12.4349C137.743 12.1076 137.939 11.8459 138.026 11.6495C138.088 11.4721 138.184 11.3089 138.31 11.1696C138.439 11.0672 138.587 10.9929 138.746 10.9514C138.979 10.9328 139.212 10.9328 139.444 10.9514L139.619 10.2533H135.081L134.885 10.9078C135.103 10.8865 135.322 10.8865 135.539 10.9078C135.605 10.9215 135.667 10.9503 135.72 10.9919C135.773 11.0335 135.816 11.0869 135.845 11.1478C135.902 11.2951 135.902 11.4585 135.845 11.6059C135.806 11.8736 135.74 12.1367 135.649 12.3912L133.292 19.9612C133.183 20.3103 133.074 20.572 132.987 20.7902C132.913 20.9796 132.81 21.1563 132.682 21.3138C132.556 21.4307 132.408 21.5199 132.245 21.5756C132.013 21.5942 131.78 21.5942 131.547 21.5756L131.351 22.1428H135.474C136.004 22.176 136.536 22.176 137.067 22.1428C137.551 22.0683 138.026 21.944 138.485 21.7719C138.944 21.5731 139.377 21.3166 139.772 21.0083C140.16 20.685 140.485 20.2931 140.732 19.8521C141.009 19.3689 141.187 18.8347 141.255 18.2814C141.368 17.8007 141.368 17.3005 141.255 16.8198C141.153 16.4402 140.931 16.1037 140.622 15.8599C140.302 15.5681 139.911 15.365 139.488 15.2709C139.026 15.1445 138.549 15.0857 138.07 15.0964H137.437H136.936L137.786 12.3258L137.743 12.4349ZM136.652 15.9253H136.979H137.437C137.78 15.9222 138.117 16.0047 138.419 16.1653C138.699 16.3432 138.907 16.6133 139.008 16.9289C139.101 17.397 139.101 17.8788 139.008 18.3469C138.938 18.7684 138.813 19.1791 138.637 19.5685C138.472 19.9528 138.243 20.3068 137.961 20.6157C137.721 20.9028 137.433 21.1464 137.11 21.3356C136.808 21.4989 136.472 21.5886 136.128 21.5974C135.914 21.6149 135.699 21.5612 135.518 21.4447C135.443 21.3804 135.384 21.2996 135.347 21.2087C135.309 21.1178 135.293 21.0193 135.299 20.9211C135.32 20.5811 135.379 20.2446 135.474 19.9176L136.696 15.9908L136.652 15.9253ZM155.086 19.0231C154.672 19.5467 154.257 20.0267 153.864 20.4411C153.523 20.8044 153.134 21.12 152.708 21.3792C152.353 21.6178 151.936 21.7467 151.508 21.7501C151.297 21.7546 151.088 21.7118 150.895 21.625C150.703 21.5382 150.532 21.4095 150.396 21.2483C150.068 20.8498 149.864 20.3648 149.807 19.8521C149.711 19.1281 149.711 18.3946 149.807 17.6706C149.913 16.9287 150.088 16.1983 150.33 15.489C150.537 14.8247 150.823 14.1876 151.181 13.5911C151.486 13.0559 151.852 12.558 152.272 12.1076C152.622 11.7243 153.027 11.3936 153.472 11.1259C153.862 10.9183 154.295 10.8062 154.737 10.7987C155.099 10.759 155.464 10.852 155.762 11.0605C156.06 11.2681 156.27 11.5792 156.351 11.9331C156.491 12.4517 156.543 12.99 156.504 13.5256H157.093C157.093 13.0675 157.289 12.5658 157.399 12.064C157.508 11.5623 157.595 11.0605 157.704 10.5806L157.18 10.3842L156.308 10.1879C155.93 10.1628 155.551 10.1628 155.173 10.1879C154.433 10.192 153.697 10.3097 152.992 10.5369C152.284 10.7815 151.616 11.1268 151.007 11.5623C150.377 12.0064 149.818 12.5433 149.349 13.1548C148.831 13.8145 148.419 14.5504 148.127 15.3363C147.816 16.0116 147.589 16.7222 147.451 17.4524C147.324 18.1741 147.324 18.9123 147.451 19.634C147.562 20.2036 147.8 20.7406 148.149 21.2047C148.49 21.6228 148.933 21.9458 149.436 22.1428C150.004 22.372 150.612 22.4833 151.225 22.47C151.602 22.5028 151.982 22.5028 152.359 22.47L153.297 22.2955L153.93 22.1209C154.061 21.9464 154.192 21.7283 154.344 21.4883L154.781 20.7684L155.195 20.0267C155.326 19.8085 155.435 19.5903 155.544 19.3722L155.064 19.0886L155.086 19.0231ZM166.626 12.4785C166.736 12.1295 166.845 11.8677 166.932 11.6495C166.998 11.4581 167.111 11.2858 167.259 11.1478C167.377 11.0165 167.528 10.9187 167.695 10.8642H168.372L168.568 10.2751H163.878L163.616 10.9078C163.863 10.8859 164.111 10.8859 164.358 10.9078C164.532 10.9078 164.641 11.0387 164.685 11.1696C164.743 11.3317 164.743 11.5092 164.685 11.6713C164.685 11.8895 164.554 12.1731 164.423 12.5221L162.133 19.9394C162.052 20.2301 161.95 20.5145 161.827 20.7902C161.754 20.9731 161.65 21.1427 161.522 21.292C161.396 21.4089 161.248 21.4981 161.085 21.5537C160.86 21.573 160.634 21.573 160.409 21.5537L160.191 22.1428H164.859L165.056 21.5537C164.824 21.5745 164.59 21.5745 164.358 21.5537C164.289 21.5311 164.227 21.4941 164.174 21.4451C164.121 21.3962 164.08 21.3365 164.052 21.2701C164.006 21.1061 164.006 20.9324 164.052 20.7684C164.116 20.4877 164.196 20.2109 164.292 19.9394L165.514 16.0999H165.972C166.115 16.1458 166.243 16.2286 166.343 16.3398C166.461 16.5026 166.542 16.6885 166.583 16.8852C166.61 17.1973 166.61 17.5112 166.583 17.8233V18.7832C166.583 19.0886 166.583 19.3504 166.583 19.6122C166.583 19.8739 166.583 20.1139 166.583 20.3321C166.557 20.6151 166.557 20.8999 166.583 21.1829C166.614 21.3891 166.697 21.5841 166.823 21.7501C166.934 21.9126 167.095 22.035 167.281 22.0991C167.541 22.1404 167.806 22.1404 168.066 22.0991H169.637L169.833 21.5101C169.635 21.5044 169.441 21.4521 169.266 21.3574C169.107 21.2622 168.984 21.1163 168.917 20.9429C168.817 20.677 168.759 20.3975 168.743 20.1139C168.743 19.7649 168.743 19.4158 168.743 19.1104C168.743 18.805 168.743 18.4996 168.743 18.2378C168.757 18.0272 168.757 17.8158 168.743 17.6051C168.726 17.2468 168.652 16.8934 168.524 16.558C168.373 16.3668 168.188 16.2043 167.979 16.0781C167.794 15.9264 167.588 15.8016 167.368 15.7072L167.979 15.38C168.215 15.2131 168.435 15.0231 168.634 14.8128C168.943 14.5163 169.227 14.1953 169.484 13.8529L170.401 12.5876C170.591 12.33 170.795 12.0824 171.011 11.8459C171.133 11.7021 171.281 11.5835 171.448 11.4968C171.59 11.4517 171.742 11.4517 171.884 11.4968H172.211C172.312 11.5187 172.416 11.5187 172.517 11.4968C172.627 11.4367 172.729 11.3635 172.822 11.2787C172.895 11.1731 172.947 11.0546 172.975 10.9296C173.008 10.8082 173.008 10.6801 172.975 10.5587C172.924 10.4413 172.83 10.3477 172.713 10.297C172.563 10.2572 172.405 10.2572 172.255 10.297C172.033 10.3064 171.817 10.3661 171.622 10.4715C171.359 10.6196 171.123 10.8114 170.924 11.0387C170.625 11.3557 170.355 11.6988 170.117 12.064C169.833 12.544 169.55 12.9366 169.332 13.2639L168.721 14.0928L168.197 14.6819L167.739 15.1182C167.546 15.2815 167.333 15.4207 167.106 15.5327C166.915 15.6354 166.709 15.7089 166.496 15.7508C166.249 15.7744 166.001 15.7744 165.754 15.7508L166.714 12.7839L166.626 12.4785ZM189.358 10.2533H185.89V10.5369C185.898 10.6313 185.898 10.7262 185.89 10.8205L185.671 11.1478L179.105 20.0485L181.483 12.7839C181.614 12.3694 181.723 12.0422 181.832 11.7804C181.911 11.5822 182.021 11.398 182.159 11.235C182.277 11.1038 182.428 11.0059 182.595 10.9514L183.25 10.9078L183.468 10.3188H178.887L178.669 10.9078C178.894 10.8867 179.12 10.8867 179.345 10.9078C179.416 10.9302 179.482 10.9669 179.538 11.0157C179.594 11.0645 179.64 11.1243 179.672 11.1914C179.717 11.3777 179.717 11.5722 179.672 11.7586C179.672 11.9986 179.519 12.3476 179.389 12.7621L177.163 19.634C177.032 20.0485 176.923 20.3757 176.814 20.6375C176.732 20.8452 176.613 21.0371 176.465 21.2047C176.34 21.3216 176.191 21.4108 176.029 21.4665H175.353L175.156 22.0555H178.625V21.7719L178.887 21.5974C178.887 21.4883 179.018 21.3574 179.127 21.2047L185.431 12.2603L183.054 19.7431C182.923 20.1575 182.792 20.4848 182.704 20.7247C182.62 20.9269 182.51 21.1175 182.377 21.292C182.248 21.404 182.101 21.4927 181.941 21.5537C181.731 21.5735 181.519 21.5735 181.308 21.5537L181.068 22.2518H185.628L185.802 21.6628C185.57 21.6815 185.337 21.6815 185.104 21.6628C184.97 21.6124 184.856 21.5207 184.777 21.401C184.732 21.2146 184.732 21.0203 184.777 20.8338C184.854 20.5018 184.949 20.1741 185.061 19.8521L187.242 12.7621C187.242 12.3694 187.46 12.064 187.548 11.824C187.636 11.6377 187.746 11.462 187.875 11.3005C188.018 11.1038 188.227 10.9646 188.464 10.9078C188.696 10.8891 188.93 10.8891 189.162 10.9078L189.358 10.3188V10.2533ZM205.48 10.2533H202.011V10.5369C201.986 10.6389 201.941 10.7351 201.88 10.8205C201.831 10.9386 201.765 11.0489 201.684 11.1478L195.227 20.0485L197.604 12.7839C197.735 12.3694 197.844 12.0422 197.953 11.7804C198.015 11.5741 198.128 11.3866 198.281 11.235C198.399 11.1038 198.549 11.0059 198.717 10.9514H199.371L199.59 10.3624H195.03L194.79 10.9078C195.015 10.8867 195.242 10.8867 195.467 10.9078C195.535 10.9304 195.597 10.9674 195.65 11.0164C195.703 11.0653 195.744 11.125 195.772 11.1914C195.839 11.3746 195.839 11.5754 195.772 11.7586C195.705 12.098 195.617 12.4331 195.51 12.7621L193.285 19.634C193.154 20.0485 193.045 20.3757 192.936 20.6375C192.853 20.8452 192.735 21.0371 192.587 21.2047C192.461 21.3216 192.313 21.4108 192.151 21.4665H191.474L191.278 22.0555H194.747V21.7719L194.878 21.401C194.878 21.292 195.008 21.1611 195.117 21.0083L201.466 12.064L199.175 19.7431C199.044 20.1575 198.913 20.4848 198.826 20.7247C198.743 20.9325 198.625 21.1244 198.477 21.292C198.36 21.4084 198.218 21.4977 198.063 21.5537C197.852 21.5715 197.64 21.5715 197.43 21.5537L197.234 22.1428H201.793L201.968 21.5537C201.735 21.5745 201.502 21.5745 201.269 21.5537C201.135 21.5033 201.021 21.4117 200.942 21.292C200.898 21.1055 200.898 20.9112 200.942 20.7247C201.009 20.3901 201.104 20.0617 201.226 19.7431L203.407 12.653C203.407 12.2603 203.626 11.9549 203.713 11.715C203.802 11.5286 203.911 11.353 204.04 11.1914C204.184 11.0369 204.376 10.9367 204.585 10.9078C204.818 10.8891 205.051 10.8891 205.283 10.9078L205.48 10.3188V10.2533ZM202.884 6.78467C202.718 7.05553 202.528 7.31106 202.317 7.54821C202.123 7.75472 201.894 7.92468 201.64 8.04997C201.384 8.18122 201.099 8.24857 200.811 8.2463C200.58 8.25756 200.352 8.19656 200.157 8.07178C200.08 8.01465 200.015 7.94278 199.967 7.86038C199.918 7.77797 199.886 7.68668 199.873 7.59184C199.831 7.33905 199.831 7.08109 199.873 6.8283H199.371L199.197 7.09008L198.913 7.52639C198.853 7.67566 198.802 7.82869 198.761 7.98452C198.742 8.22254 198.779 8.46164 198.87 8.68261C198.975 8.91847 199.15 9.11641 199.371 9.24981C199.641 9.41151 199.953 9.48759 200.266 9.46797C200.671 9.46624 201.071 9.3847 201.444 9.228C201.856 9.03198 202.221 8.74919 202.513 8.39901C202.875 7.96593 203.169 7.48047 203.386 6.95919L202.884 6.78467Z" fill="white"/>
<path fill-rule="evenodd" clip-rule="evenodd" d="M73.0163 28.5346L72.8418 29.1454H73.5181C73.6586 29.1829 73.7818 29.2677 73.8671 29.3854C73.909 29.5352 73.909 29.6937 73.8671 29.8435C73.8279 30.1307 73.7696 30.4149 73.6926 30.6943L71.991 38.3297C71.9351 38.603 71.8622 38.8726 71.7729 39.1369C71.7044 39.2996 71.6165 39.4535 71.5111 39.595C71.398 39.7121 71.2544 39.7952 71.0966 39.835C70.8716 39.8542 70.6453 39.8542 70.4203 39.835L70.2676 40.424H75.1324L75.2633 39.835C75.0019 39.8547 74.7394 39.8547 74.478 39.835C74.3192 39.7975 74.175 39.714 74.0635 39.595C74.0151 39.4461 74.0151 39.2858 74.0635 39.1369C74.0852 38.8647 74.1289 38.5948 74.1944 38.3297L74.8706 35.4937L75.9178 35.8209H76.3541C76.9037 35.7833 77.4425 35.6504 77.9466 35.4283C78.429 35.2228 78.8719 34.9349 79.2556 34.5775C79.6269 34.2293 79.9302 33.815 80.15 33.3558C80.3747 32.8526 80.5077 32.3133 80.5427 31.7633C80.5769 31.2606 80.5101 30.7562 80.3463 30.2798C80.1947 29.8842 79.9383 29.5373 79.6046 29.2763C79.2538 29.0104 78.8532 28.8176 78.4266 28.7091C77.926 28.5923 77.4135 28.5338 76.8995 28.5346H73.0163ZM75.9832 30.3453C76.0272 30.1307 76.0855 29.9193 76.1578 29.7126C76.1976 29.5901 76.2647 29.4782 76.3541 29.3854L76.5722 29.2763C76.68 29.2519 76.7918 29.2519 76.8995 29.2763C77.18 29.2715 77.4549 29.3555 77.6848 29.5163C77.9352 29.7095 78.1184 29.9766 78.2084 30.2798C78.3435 30.6796 78.3954 31.1027 78.3611 31.5233C78.3415 31.9847 78.2533 32.4405 78.0993 32.8759C77.9801 33.2742 77.7958 33.6502 77.5539 33.9884C77.3551 34.3006 77.0862 34.5621 76.7686 34.752C76.4855 34.9431 76.1502 35.0422 75.8087 35.0356H75.3288L74.9579 34.9047L75.9832 30.5416V30.3453ZM82.5279 28.5346H89.9233C89.9233 28.6437 89.9233 28.8182 89.9233 29.0145C89.9233 29.2109 89.9233 29.4726 89.7924 29.7344C89.6615 29.9962 89.7924 30.258 89.6397 30.5416C89.487 30.8252 89.6397 31.087 89.5088 31.327H88.9634C88.9634 30.9997 88.9634 30.6943 88.9634 30.4107C88.9428 30.1842 88.8837 29.9629 88.7889 29.7562C88.7476 29.6353 88.6717 29.5291 88.5707 29.4508C88.45 29.3613 88.3062 29.3083 88.1563 29.2981C87.9171 29.2701 87.6755 29.2701 87.4364 29.2981H86.5201C86.3832 29.2716 86.2425 29.2716 86.1056 29.2981C86.0588 29.3113 86.0161 29.3362 85.9818 29.3706C85.9474 29.405 85.9224 29.4476 85.9093 29.4945C85.8335 29.6282 85.7887 29.7774 85.7784 29.9308L84.8621 33.8139H86.8037C86.9787 33.7937 87.1447 33.7258 87.2836 33.6176C87.4318 33.5096 87.5515 33.3674 87.6327 33.2031C87.6327 33.0067 87.8508 32.7668 87.9817 32.4395H88.5489L87.6545 36.2136H87.0655C87.0839 35.9449 87.0839 35.6752 87.0655 35.4064C87.0587 35.2424 87.0058 35.0836 86.9128 34.9483C86.8637 34.8911 86.8036 34.8443 86.7362 34.8106C86.6688 34.7769 86.5953 34.757 86.5201 34.752C86.2596 34.7153 85.9952 34.7153 85.7347 34.752H84.6222L83.8586 38.0025C83.8586 38.3079 83.7277 38.5697 83.7059 38.766C83.6971 38.9259 83.6971 39.0861 83.7059 39.246C83.7181 39.3586 83.7637 39.4649 83.8368 39.5514C83.9535 39.6712 84.1072 39.7481 84.2731 39.7695C84.5852 39.7969 84.8991 39.7969 85.2112 39.7695C85.5951 39.7798 85.9781 39.7283 86.3456 39.6168C86.6481 39.5214 86.9244 39.3572 87.1528 39.1369C87.3636 38.9245 87.5604 38.6986 87.7418 38.4606C87.9381 38.177 88.1563 37.828 88.3744 37.4571L88.9198 37.6753C88.866 37.8469 88.8004 38.0145 88.7235 38.177C88.7235 38.3733 88.5708 38.5697 88.4835 38.8097C88.3962 39.0496 88.2872 39.246 88.1999 39.4641L87.9381 40.0531C87.9381 40.2495 87.7854 40.3804 87.7418 40.5113H79.8009L79.9536 39.9222C80.1932 39.9427 80.434 39.9427 80.6736 39.9222C80.838 39.883 80.9887 39.8001 81.1099 39.6823C81.2399 39.5378 81.3367 39.3665 81.3935 39.1805C81.3935 38.9624 81.5462 38.6569 81.6334 38.2861L83.3787 30.9125C83.4591 30.6275 83.5102 30.3351 83.5314 30.0398C83.58 29.8836 83.58 29.7162 83.5314 29.5599C83.4488 29.4394 83.3244 29.3539 83.1823 29.3199C82.953 29.2648 82.7195 29.2283 82.4842 29.2109L82.6369 28.6218L82.5279 28.5346ZM91.7994 28.5346L91.6685 29.1018C91.9041 29.1171 92.1377 29.1536 92.3666 29.2109C92.4365 29.2218 92.5035 29.2467 92.5635 29.2842C92.6235 29.3217 92.6753 29.371 92.7157 29.429C92.7661 29.5925 92.7661 29.7673 92.7157 29.9308C92.6774 30.2396 92.6191 30.5457 92.5412 30.847L90.7959 38.2206C90.7388 38.5152 90.666 38.8065 90.5778 39.0933C90.5159 39.277 90.4197 39.4473 90.2942 39.595C90.1953 39.7227 90.0574 39.8146 89.9015 39.8568L89.247 39.9659L89.1161 40.5331H93.9155L94.0682 39.9659C93.7967 39.9508 93.5268 39.9143 93.2611 39.8568C93.1052 39.8146 92.9673 39.7227 92.8684 39.595C92.818 39.4316 92.818 39.2567 92.8684 39.0933C92.8983 38.7991 92.9494 38.5075 93.0211 38.2206L94.9627 29.9308C94.994 29.7819 95.0378 29.636 95.0936 29.4945C95.1113 29.4526 95.1381 29.4152 95.172 29.385C95.206 29.3548 95.2463 29.3326 95.2899 29.3199C95.4274 29.3005 95.5669 29.3005 95.7044 29.3199H96.577C96.7871 29.2937 96.9996 29.2937 97.2097 29.3199C97.3478 29.3534 97.4752 29.4209 97.5805 29.5163C97.6769 29.618 97.7381 29.748 97.7551 29.8871C97.8268 30.1054 97.8636 30.3337 97.8641 30.5634C97.8641 30.8252 97.8641 31.1524 97.8641 31.5015H98.4095C98.4095 31.2615 98.4095 30.9997 98.5622 30.6943C98.7149 30.3889 98.5622 30.1053 98.7149 29.8217C98.8677 29.5381 98.7149 29.2763 98.8458 29.0581C98.8575 28.8984 98.8575 28.738 98.8458 28.5782L91.7994 28.5346ZM110.67 28.5346L110.517 29.1236C110.281 29.1298 110.046 29.1664 109.819 29.2327C109.661 29.2724 109.518 29.3556 109.405 29.4726C109.267 29.62 109.169 29.8003 109.121 29.9962C109.014 30.303 108.926 30.6163 108.859 30.9343L107.158 38.0243L106.961 39.006C106.91 39.1841 106.91 39.3732 106.961 39.5514C106.995 39.6216 107.043 39.6835 107.104 39.7326C107.164 39.7816 107.235 39.8166 107.31 39.835C107.542 39.8576 107.776 39.8576 108.008 39.835L107.856 40.424H103.427L103.58 39.835C103.79 39.8528 104.002 39.8528 104.212 39.835C104.365 39.7739 104.499 39.6766 104.605 39.5514C104.735 39.39 104.831 39.2047 104.889 39.006C104.998 38.685 105.085 38.357 105.151 38.0243L107.005 30.5416L101.355 39.4859C101.276 39.6099 101.21 39.7415 101.158 39.8786C101.102 39.9955 101.065 40.1208 101.049 40.2495V40.5331H97.4715L97.6024 39.9441C97.8274 39.9633 98.0536 39.9633 98.2786 39.9441C98.4465 39.8895 98.597 39.7917 98.7149 39.6605C98.8399 39.4962 98.9358 39.3117 98.9985 39.1151C99.1046 38.7858 99.192 38.4507 99.2603 38.1116L100.94 31.1961C101.03 30.8667 101.095 30.5313 101.136 30.1926C101.198 30.0085 101.198 29.8094 101.136 29.6253C101.066 29.494 100.949 29.3931 100.809 29.3417C100.58 29.2845 100.347 29.248 100.111 29.2327L100.307 28.6437H104.714L104.54 29.2327L103.885 29.3417C103.732 29.403 103.592 29.4918 103.471 29.6035C103.354 29.7809 103.259 29.9713 103.187 30.1707C103.187 30.4325 103.013 30.7598 102.925 31.1742L101.136 38.4388L106.896 29.429L107.092 29.1018C107.102 29.0075 107.102 28.9125 107.092 28.8182V28.5346H110.67ZM116.669 28.3601C116.016 28.3599 115.37 28.4935 114.771 28.7527C114.157 29.0251 113.59 29.3933 113.091 29.8435C112.567 30.3399 112.112 30.9049 111.739 31.5233C111.342 32.2113 111.027 32.9435 110.801 33.7048C110.573 34.5015 110.434 35.3209 110.386 36.1482C110.342 36.8005 110.4 37.4558 110.561 38.0897C110.693 38.6362 110.938 39.1489 111.281 39.595C111.59 40.0193 112.003 40.3573 112.481 40.5767C113.001 40.8117 113.567 40.9307 114.138 40.9258C114.808 40.9319 115.471 40.7904 116.08 40.5113C116.724 40.2026 117.308 39.7815 117.803 39.2678C118.315 38.779 118.756 38.2209 119.112 37.6098C119.501 36.9587 119.809 36.2628 120.029 35.5373C120.249 34.7845 120.381 34.0084 120.421 33.2249C120.474 32.552 120.423 31.875 120.269 31.2179C120.156 30.6592 119.926 30.1311 119.592 29.669C119.298 29.234 118.891 28.8872 118.414 28.6655C117.884 28.4109 117.301 28.2839 116.713 28.2946L116.669 28.3601ZM116.516 29.08C116.823 29.083 117.12 29.1822 117.367 29.3636C117.593 29.5703 117.759 29.8341 117.847 30.1271C117.968 30.4794 118.041 30.8462 118.065 31.2179C118.109 31.6458 118.109 32.0771 118.065 32.505C118.041 33.0762 117.975 33.6448 117.869 34.2066C117.762 34.7881 117.623 35.3634 117.454 35.93C117.308 36.4779 117.11 37.011 116.865 37.5225C116.672 37.994 116.423 38.4408 116.124 38.8533C115.89 39.2087 115.595 39.5191 115.251 39.7695C114.967 39.9806 114.623 40.0952 114.269 40.0968C113.985 40.1036 113.707 40.011 113.484 39.835C113.247 39.6425 113.073 39.3845 112.982 39.0933C112.842 38.7445 112.754 38.377 112.72 38.0025C112.687 37.5522 112.687 37.1002 112.72 36.6499C112.771 35.9165 112.873 35.1875 113.026 34.4684C113.181 33.7689 113.393 33.0831 113.659 32.4177C113.874 31.8297 114.152 31.2665 114.488 30.7379C114.765 30.3132 115.103 29.931 115.491 29.6035C115.791 29.3638 116.156 29.2194 116.538 29.189L116.516 29.08ZM133.511 28.6L133.358 29.189L132.638 29.2981C132.48 29.3379 132.337 29.421 132.223 29.5381C132.098 29.6738 132.008 29.8388 131.962 30.018C131.962 30.2144 131.831 30.4762 131.744 30.8252L129.977 38.3297C129.907 38.6023 129.856 38.8793 129.824 39.1587C129.774 39.3148 129.774 39.4826 129.824 39.6386C129.909 39.7703 130.042 39.8641 130.195 39.9004C130.434 39.9209 130.675 39.9209 130.915 39.9004L130.74 40.4894H126.093L126.246 39.9004C126.471 39.9197 126.697 39.9197 126.922 39.9004C127.087 39.8612 127.237 39.7783 127.359 39.6605C127.472 39.5163 127.561 39.354 127.62 39.1805C127.709 38.9012 127.782 38.6172 127.839 38.3297L128.711 34.6211H124.85L123.999 38.2643C123.999 38.6133 123.868 38.8751 123.846 39.0933C123.798 39.2495 123.798 39.4169 123.846 39.5732C123.929 39.6978 124.053 39.7902 124.195 39.835C124.413 39.8563 124.632 39.8563 124.85 39.835L124.719 40.424H120.116L120.269 39.835C120.501 39.8536 120.734 39.8536 120.967 39.835C121.127 39.788 121.27 39.6974 121.381 39.5732C121.507 39.4375 121.597 39.2725 121.643 39.0933C121.735 38.8223 121.808 38.5453 121.861 38.2643L123.65 30.7598C123.721 30.4948 123.772 30.225 123.803 29.9526C123.856 29.797 123.856 29.6282 123.803 29.4726C123.715 29.3476 123.582 29.2615 123.432 29.2327C123.188 29.1759 122.94 29.1394 122.69 29.1236L122.843 28.5346H127.533L127.38 29.1236C127.167 29.1398 126.955 29.1763 126.748 29.2327C126.596 29.2729 126.46 29.3562 126.355 29.4726C126.245 29.6156 126.163 29.7786 126.115 29.9526C126.026 30.2169 125.953 30.4864 125.897 30.7598L125.199 33.7267H129.017L129.715 30.7598C129.786 30.4948 129.837 30.225 129.867 29.9526C129.917 29.7965 129.917 29.6287 129.867 29.4726C129.829 29.4105 129.778 29.3571 129.718 29.3158C129.658 29.2745 129.59 29.2461 129.518 29.2327C129.304 29.1748 129.085 29.1383 128.864 29.1236L129.038 28.5346L133.511 28.6ZM141.8 39.9441C141.597 39.964 141.393 39.964 141.19 39.9441C141.053 39.8878 140.933 39.7977 140.841 39.6823C140.758 39.5398 140.7 39.3852 140.666 39.2242C140.666 39.0278 140.666 38.766 140.666 38.4606C140.666 37.1299 140.492 35.8646 140.404 34.6429C140.317 33.4212 140.23 32.1996 140.143 31.0215L139.903 28.3601L139.117 28.5782L133.794 38.1116C133.598 38.4824 133.402 38.7878 133.249 39.0278C133.124 39.2314 132.97 39.4152 132.791 39.5732C132.654 39.6909 132.499 39.7866 132.333 39.8568C132.136 39.9279 131.93 39.9719 131.722 39.9877L131.569 40.5767H135.125L135.278 39.9877C135.006 39.9718 134.74 39.9052 134.492 39.7914C134.42 39.7607 134.358 39.709 134.315 39.6429C134.272 39.5767 134.251 39.4992 134.252 39.4205C134.294 39.2071 134.368 39.0013 134.47 38.8097L134.82 38.0461L135.147 37.3698L135.474 36.7154H138.375C138.375 37.0426 138.375 37.3917 138.375 37.7407C138.375 38.0897 138.375 38.5042 138.375 38.9187C138.41 39.1062 138.41 39.2985 138.375 39.4859C138.354 39.5576 138.318 39.6238 138.269 39.6802C138.22 39.7367 138.16 39.782 138.092 39.8132C137.89 39.921 137.666 39.9808 137.437 39.9877L137.263 40.5767H141.626L141.8 39.9877V39.9441ZM138.31 35.7773H135.91L136.63 34.3811L137.328 33.0504L138.07 31.676L138.288 35.7773H138.31ZM154.148 28.5346H145.902L145.749 29.1236C146.011 29.1054 146.273 29.1054 146.534 29.1236C146.689 29.1476 146.833 29.2158 146.949 29.3199C146.983 29.4411 146.983 29.5696 146.949 29.6908C146.976 29.8862 146.976 30.0844 146.949 30.2798C146.665 31.4578 146.382 32.4614 146.054 33.4867C145.784 34.3694 145.463 35.2361 145.095 36.0827C144.814 36.7417 144.494 37.3829 144.135 38.0025L143.48 38.9406C143.279 39.2019 143.06 39.4497 142.826 39.6823C142.597 39.8915 142.356 40.0882 142.106 40.2713V40.5767C142.237 40.6396 142.377 40.6837 142.52 40.7076C142.694 40.7315 142.87 40.7315 143.044 40.7076C143.266 40.7045 143.481 40.6278 143.655 40.4894C143.878 40.3048 144.076 40.0922 144.244 39.8568C144.583 39.3962 144.883 38.9072 145.138 38.3952C145.422 37.828 145.705 37.1953 145.967 36.519C146.229 35.8428 146.469 35.1447 146.709 34.3375L147.363 32.1559C147.56 31.3924 147.734 30.6725 147.887 29.9744C147.926 29.7966 147.977 29.6217 148.04 29.4508C148.074 29.3436 148.134 29.2463 148.214 29.1672C148.322 29.1395 148.434 29.1395 148.541 29.1672H150.156C150.263 29.1375 150.376 29.1375 150.483 29.1672C150.5 29.201 150.509 29.2384 150.509 29.2763C150.509 29.3142 150.5 29.3516 150.483 29.3854C150.459 29.5623 150.423 29.7372 150.374 29.909L148.476 37.8934C148.409 38.2114 148.321 38.5247 148.214 38.8315C148.151 39.0281 148.056 39.2126 147.931 39.3769C147.821 39.5073 147.678 39.6054 147.516 39.6605C147.284 39.6791 147.05 39.6791 146.818 39.6605L146.687 40.2495H151.377L151.508 39.6605C151.276 39.6831 151.042 39.6831 150.81 39.6605C150.661 39.6158 150.535 39.5138 150.461 39.3769C150.413 39.1983 150.413 39.0101 150.461 38.8315C150.461 38.5915 150.461 38.2861 150.658 37.8934L152.403 30.5198C152.451 30.2588 152.524 30.0031 152.621 29.7562C152.672 29.5854 152.761 29.4286 152.883 29.2981C153.001 29.1764 153.153 29.0928 153.319 29.0581C153.548 29.003 153.782 28.9665 154.017 28.9491L154.148 28.3601V28.5346ZM158.271 30.7161L157.617 33.4867H158.14H158.795C159.279 33.4788 159.763 33.5301 160.235 33.6394C160.636 33.7497 161.014 33.9347 161.347 34.1848C161.67 34.4418 161.919 34.7808 162.067 35.1665C162.228 35.636 162.295 36.1327 162.263 36.6281C162.23 37.1739 162.089 37.7077 161.849 38.1988C161.634 38.6361 161.338 39.0285 160.976 39.355C160.609 39.6632 160.197 39.9134 159.755 40.0968C159.304 40.2762 158.836 40.4079 158.358 40.4894C157.835 40.5234 157.311 40.5234 156.788 40.4894H152.708L152.861 39.9222C153.091 39.9105 153.319 39.8664 153.537 39.7914C153.7 39.752 153.846 39.66 153.952 39.5296C154.078 39.3856 154.167 39.2135 154.213 39.0278C154.311 38.7493 154.391 38.4652 154.453 38.177L156.221 30.6725C156.291 30.4149 156.342 30.1524 156.373 29.8871C156.425 29.7388 156.425 29.5774 156.373 29.429C156.34 29.3675 156.293 29.3142 156.236 29.2727C156.18 29.2313 156.115 29.2027 156.046 29.189C155.832 29.1312 155.613 29.0946 155.392 29.08L155.522 28.4909H160.104L159.951 29.08C159.716 29.0974 159.482 29.1339 159.253 29.189C159.097 29.2215 158.953 29.2971 158.838 29.4072C158.724 29.543 158.636 29.6982 158.577 29.8653C158.577 30.0835 158.446 30.3453 158.38 30.6725L158.271 30.7161ZM157.442 34.1848L156.548 38.1334C156.489 38.4653 156.489 38.8049 156.548 39.1369C156.551 39.2358 156.574 39.333 156.615 39.4229C156.656 39.5128 156.715 39.5936 156.788 39.6605C156.977 39.7773 157.199 39.8308 157.42 39.8132C157.758 39.8118 158.089 39.7215 158.38 39.5514C158.689 39.3606 158.963 39.1169 159.187 38.8315C159.431 38.5148 159.622 38.1613 159.755 37.7843C159.905 37.3847 160.001 36.9663 160.038 36.5409C160.079 36.0684 160.02 35.5925 159.864 35.1447C159.738 34.8236 159.507 34.5544 159.209 34.3811C158.902 34.2131 158.556 34.1302 158.206 34.1411H157.529L157.442 34.1848ZM176.051 28.5346H171.404L171.251 29.1236C171.473 29.1383 171.692 29.1748 171.906 29.2327C171.976 29.2432 172.042 29.2705 172.099 29.3123C172.156 29.3541 172.202 29.4091 172.233 29.4726C172.283 29.6287 172.283 29.7965 172.233 29.9526C172.233 30.1489 172.233 30.4325 172.102 30.7598L171.382 33.7267H167.652L168.328 30.7598C168.328 30.4325 168.481 30.1489 168.546 29.9526C168.601 29.7769 168.69 29.6138 168.808 29.4726C168.904 29.3568 169.034 29.2731 169.179 29.2327C169.386 29.1783 169.598 29.1418 169.812 29.1236L169.964 28.5346H165.296L165.143 29.1236C165.386 29.1392 165.627 29.1757 165.863 29.2327C165.941 29.2443 166.016 29.2715 166.084 29.3127C166.151 29.3539 166.21 29.4083 166.256 29.4726C166.346 29.6155 166.384 29.7848 166.365 29.9526C166.334 30.225 166.283 30.4948 166.212 30.7598L164.423 38.2643C164.364 38.5462 164.284 38.8233 164.183 39.0933C164.137 39.2725 164.047 39.4375 163.921 39.5732C163.814 39.7013 163.669 39.7928 163.507 39.835C163.275 39.8557 163.041 39.8557 162.809 39.835L162.656 40.424H167.346L167.477 39.835C167.252 39.8542 167.026 39.8542 166.801 39.835C166.667 39.7846 166.552 39.6929 166.474 39.5732C166.425 39.4169 166.425 39.2495 166.474 39.0933C166.504 38.8136 166.555 38.5365 166.626 38.2643L167.477 34.6211H171.295L170.466 38.2643C170.409 38.5517 170.336 38.8358 170.248 39.1151C170.181 39.2901 170.086 39.4524 169.964 39.595C169.851 39.7121 169.708 39.7952 169.55 39.835C169.317 39.8536 169.084 39.8536 168.852 39.835L168.699 40.424H173.411L173.586 39.835C173.353 39.8557 173.12 39.8557 172.888 39.835C172.735 39.7986 172.602 39.7049 172.517 39.5732C172.475 39.4159 172.475 39.2505 172.517 39.0933C172.549 38.8138 172.6 38.5369 172.669 38.2643L174.458 30.7598C174.501 30.4834 174.574 30.2127 174.676 29.9526C174.725 29.7786 174.806 29.6156 174.916 29.4726C175.038 29.3548 175.188 29.2719 175.353 29.2327C175.589 29.1757 175.83 29.1392 176.073 29.1236L176.225 28.5346H176.051ZM180.13 30.7161L179.498 33.5521H179.999H180.61C181.096 33.5403 181.581 33.5991 182.05 33.7267C182.455 33.8275 182.835 34.0134 183.163 34.272C183.474 34.5359 183.714 34.8734 183.861 35.2537C184.015 35.717 184.075 36.2068 184.035 36.6936C184.003 37.237 183.87 37.7698 183.643 38.2643C183.435 38.6939 183.146 39.0792 182.792 39.3987C182.435 39.7153 182.03 39.973 181.592 40.1622C181.138 40.3498 180.661 40.4746 180.174 40.5331C179.64 40.6226 179.1 40.6664 178.56 40.664H174.524L174.676 40.0968C174.914 40.0845 175.149 40.0405 175.374 39.9659C175.532 39.9261 175.676 39.843 175.789 39.7259C175.911 39.579 176 39.408 176.051 39.2242C176.14 38.9599 176.213 38.6903 176.269 38.417L178.058 30.7816C178.058 30.4762 178.167 30.2144 178.189 30.0398C178.237 29.891 178.237 29.7306 178.189 29.5817C178.158 29.5182 178.112 29.4632 178.055 29.4214C177.998 29.3796 177.931 29.3522 177.861 29.3417C177.647 29.2839 177.428 29.2473 177.207 29.2327L177.36 28.6655H181.919L181.766 29.2327C181.538 29.2495 181.312 29.286 181.09 29.3417C180.932 29.3815 180.789 29.4646 180.676 29.5817C180.55 29.7003 180.459 29.8513 180.414 30.018C180.414 30.2144 180.283 30.4543 180.196 30.7816L180.13 30.7161ZM190.733 28.5346H186.042L185.89 29.1018C186.132 29.1192 186.373 29.1556 186.609 29.2109C186.681 29.2243 186.749 29.2526 186.809 29.294C186.869 29.3353 186.92 29.3887 186.958 29.4508C186.99 29.5193 187.006 29.5937 187.006 29.669C187.006 29.7443 186.99 29.8187 186.958 29.8871C186.949 30.1392 186.905 30.3887 186.828 30.6289L185.017 38.3515C184.959 38.61 184.886 38.8649 184.799 39.1151C184.748 39.2925 184.659 39.4564 184.537 39.595C184.42 39.7114 184.278 39.8008 184.122 39.8568C183.901 39.9126 183.674 39.9491 183.446 39.9659L183.293 40.5331H188.006L188.137 39.9659C187.901 39.9485 187.668 39.912 187.438 39.8568C187.298 39.8065 187.177 39.7153 187.089 39.595C187.051 39.4374 187.051 39.2727 187.089 39.1151C187.119 38.8568 187.17 38.6014 187.242 38.3515L189.053 30.5416C189.105 30.2909 189.17 30.0433 189.249 29.7999C189.313 29.6418 189.402 29.4947 189.511 29.3636C189.624 29.2465 189.768 29.1634 189.925 29.1236C190.155 29.0684 190.388 29.0319 190.623 29.0145L190.754 28.4473L190.733 28.5346ZM179.323 34.1848L178.407 38.1552C178.326 38.4759 178.289 38.8062 178.298 39.1369C178.305 39.3426 178.391 39.5377 178.538 39.6823C178.71 39.8005 178.919 39.8545 179.127 39.835C179.468 39.8362 179.801 39.7376 180.087 39.5514C180.4 39.3663 180.674 39.1218 180.894 38.8315C181.138 38.5072 181.329 38.1464 181.461 37.7625C181.615 37.3724 181.703 36.9597 181.723 36.5409C181.764 36.0684 181.704 35.5925 181.548 35.1447C181.425 34.8228 181.204 34.5479 180.916 34.3593C180.62 34.2013 180.291 34.1189 179.956 34.1193H179.628H179.323V34.1848ZM202.469 28.5346L202.317 29.1236C202.08 29.1298 201.846 29.1664 201.618 29.2327C201.461 29.2724 201.317 29.3556 201.204 29.4726C201.074 29.6255 200.977 29.8038 200.92 29.9962C200.822 30.3039 200.742 30.6171 200.68 30.9343L198.979 38.0243C198.888 38.3459 198.822 38.6741 198.782 39.006C198.721 39.1826 198.721 39.3748 198.782 39.5514C198.857 39.6884 198.982 39.7903 199.132 39.835C199.364 39.8557 199.597 39.8557 199.83 39.835L199.699 40.424H195.205L195.357 39.835C195.568 39.8528 195.78 39.8528 195.99 39.835C196.142 39.7739 196.277 39.6766 196.383 39.5514C196.512 39.39 196.609 39.2047 196.666 39.006C196.666 38.766 196.841 38.4388 196.95 38.0243L198.782 30.5416L193.132 39.4859C193.054 39.6099 192.988 39.7415 192.936 39.8786C192.926 40.002 192.926 40.126 192.936 40.2495V40.5331H189.249L189.402 39.9441C189.62 39.9617 189.838 39.9617 190.056 39.9441C190.224 39.8895 190.375 39.7917 190.493 39.6605C190.618 39.4962 190.713 39.3117 190.776 39.1151C190.776 38.8533 190.951 38.5261 191.06 38.1116L192.718 31.1961C192.807 30.8667 192.873 30.5313 192.914 30.1926C192.976 30.0085 192.976 29.8094 192.914 29.6253C192.882 29.5582 192.836 29.4985 192.78 29.4497C192.724 29.4009 192.658 29.3642 192.587 29.3417C192.365 29.286 192.139 29.2495 191.911 29.2327L192.085 28.6437H196.623L196.448 29.2327C196.227 29.2511 196.009 29.2876 195.794 29.3417C195.644 29.3973 195.51 29.4869 195.401 29.6035C195.268 29.7707 195.171 29.9639 195.117 30.1707C195.117 30.4325 194.943 30.7598 194.834 31.1742L193.045 38.4388L198.673 29.5381C198.754 29.4392 198.821 29.3289 198.87 29.2109C198.879 29.1165 198.879 29.0216 198.87 28.9273V28.6437L202.469 28.5346ZM199.611 25.0659C199.468 25.3402 199.292 25.5965 199.088 25.8295C198.919 26.0439 198.702 26.2157 198.455 26.3312C198.208 26.465 197.93 26.5326 197.648 26.5276C197.41 26.5391 197.174 26.4782 196.972 26.353C196.815 26.2354 196.707 26.0648 196.666 25.8731C196.621 25.6206 196.621 25.3621 196.666 25.1095H196.165L196.012 25.3713C195.926 25.5099 195.853 25.6559 195.794 25.8076C195.73 25.9539 195.686 26.108 195.663 26.2658C195.656 26.5101 195.716 26.7516 195.837 26.9639C195.951 27.2013 196.133 27.3989 196.361 27.5311C196.652 27.6772 196.973 27.752 197.299 27.7492C197.721 27.761 198.14 27.6712 198.521 27.4874C198.91 27.3039 199.247 27.0265 199.502 26.6803C199.843 26.2511 200.102 25.7631 200.266 25.2404L199.611 25.0659Z" fill="white"/>
<path fill-rule="evenodd" clip-rule="evenodd" d="M75.2851 49.9793C75.5033 49.3685 75.6778 48.8667 75.8523 48.4959C75.9915 48.1637 76.1912 47.8604 76.4414 47.6014C76.6593 47.3836 76.9298 47.2258 77.2267 47.1433C77.6241 47.0236 78.0341 46.9504 78.4484 46.9251L78.7974 45.8998H70.5294L70.1803 46.9251C70.6218 46.9491 71.0601 47.0149 71.4892 47.1215C71.6107 47.1537 71.7239 47.2112 71.8216 47.2901C71.9194 47.3691 71.9994 47.4677 72.0564 47.5796C72.1431 47.8715 72.1431 48.1822 72.0564 48.474C72.0564 48.8449 71.7947 49.3467 71.5765 49.9793L67.0171 62.9377C66.8553 63.4422 66.6659 63.9374 66.4499 64.4211C66.3107 64.7533 66.111 65.0566 65.8609 65.3156C65.6434 65.5229 65.3826 65.6794 65.0973 65.7737C64.7044 65.8811 64.303 65.9541 63.8975 65.9919L63.483 66.9954H71.6638L72.0564 65.9919C71.6498 65.9625 71.2475 65.8893 70.8566 65.7737C70.7365 65.7376 70.6257 65.676 70.5316 65.5932C70.4375 65.5104 70.3623 65.4082 70.3112 65.2938C70.2219 65.0023 70.2219 64.6908 70.3112 64.3993C70.3112 64.0285 70.5512 63.5267 70.7475 62.9377L73.1254 56.1967C73.3925 56.1503 73.6655 56.1503 73.9326 56.1967C74.1826 56.2631 74.4045 56.4085 74.5652 56.6112C74.7684 56.8863 74.8963 57.2096 74.9361 57.5493C74.9983 58.0929 74.9983 58.6418 74.9361 59.1854C74.9361 59.8181 74.9361 60.4071 74.9361 60.9089C74.9361 61.4106 74.9361 61.9124 74.9361 62.3487C74.9361 62.785 74.9361 63.2213 74.9361 63.6358C74.934 64.1324 74.9705 64.6283 75.0452 65.1192C75.1052 65.4841 75.2388 65.833 75.4378 66.1446C75.6389 66.4203 75.9211 66.6262 76.245 66.7336C76.6825 66.8689 77.14 66.9279 77.5976 66.9081H80.3899L80.7608 65.9046C80.405 65.8712 80.0579 65.7752 79.7355 65.621C79.4752 65.4469 79.2766 65.1949 79.1683 64.9011C79.0134 64.4284 78.9253 63.9365 78.9065 63.4395C78.9065 62.8068 78.9065 62.2178 78.7756 61.6506C78.6447 61.0834 78.7756 60.5816 78.7756 60.1235C78.7756 59.6654 78.7756 59.2945 78.7756 58.9891C78.7635 58.375 78.6378 57.7685 78.4047 57.2002C78.245 56.7663 77.9831 56.3772 77.6412 56.0658C77.3412 55.7882 76.994 55.5666 76.6159 55.4114L77.4885 54.9096C77.9153 54.6167 78.3167 54.2883 78.6883 53.9279C79.2427 53.4031 79.7534 52.834 80.2154 52.2263C80.8917 51.3101 81.4589 50.5901 81.8952 50.0448C82.3315 49.4994 82.7024 49.0412 82.986 48.7358C83.2175 48.481 83.4904 48.2671 83.7932 48.1032C84.0306 47.9864 84.2921 47.9267 84.5567 47.9287H85.0803C85.2764 47.9247 85.4695 47.8802 85.6475 47.7978C85.833 47.6921 86.0021 47.5598 86.1492 47.4051C86.293 47.2335 86.3972 47.0324 86.4547 46.8161C86.5216 46.6031 86.5216 46.3746 86.4547 46.1616C86.3797 45.9564 86.2323 45.7857 86.0402 45.6817C85.7895 45.5581 85.5123 45.4982 85.233 45.5071C84.8292 45.5184 84.4334 45.6229 84.0768 45.8126C83.6141 46.0826 83.1949 46.4209 82.8333 46.8161C82.2983 47.3737 81.8163 47.9799 81.3935 48.6268C80.8263 49.4339 80.3463 50.132 79.91 50.6992C79.4737 51.2664 79.1247 51.7682 78.7974 52.1827C78.5063 52.5436 78.193 52.886 77.8594 53.208C77.5974 53.4856 77.3128 53.741 77.0086 53.9715C76.6751 54.2767 76.3006 54.5337 75.896 54.7351C75.5448 54.9068 75.1697 55.0244 74.7834 55.0841C74.3655 55.1567 73.9422 55.1932 73.5181 55.1932L75.3506 50.0011L75.2851 49.9793ZM97.5587 45.4853C98.5626 45.4605 99.5578 45.6775 100.46 46.118C101.254 46.5157 101.914 47.1377 102.358 47.9068C102.854 48.7385 103.16 49.6698 103.253 50.6338C103.38 51.8047 103.336 52.9879 103.122 54.1461C102.89 55.5496 102.51 56.9245 101.987 58.2474C101.461 59.5241 100.795 60.7386 100.002 61.8687C99.2503 62.9517 98.3633 63.9341 97.3624 64.792C96.426 65.6033 95.3654 66.2589 94.221 66.7336C93.0992 67.193 91.899 67.43 90.6869 67.4317C89.7072 67.4481 88.7369 67.2391 87.8508 66.8208C87.069 66.4374 86.4056 65.8494 85.9311 65.1192C85.408 64.3171 85.0724 63.4074 84.9494 62.4578C84.7768 61.3153 84.7768 60.1534 84.9494 59.0109C85.1939 57.5511 85.6037 56.124 86.1711 54.7569C86.7144 53.4413 87.4021 52.1902 88.2217 51.0265C88.9963 49.9416 89.9052 48.9594 90.9268 48.1032C91.8664 47.2963 92.9264 46.6412 94.0682 46.1616C95.1569 45.7218 96.3191 45.4924 97.4933 45.4853H97.5587ZM97.166 46.7724C96.4583 46.7975 95.7775 47.0499 95.2245 47.4924C94.4699 48.047 93.8073 48.7169 93.2611 49.4776C92.56 50.3726 91.9532 51.3376 91.4504 52.3572C90.8606 53.5231 90.3646 54.734 89.9669 55.9786C89.5303 57.2964 89.1948 58.6456 88.9634 60.0144C88.8416 60.8018 88.7687 61.5959 88.7453 62.3923C88.7388 63.0401 88.8195 63.6858 88.9852 64.3121C89.1087 64.8127 89.3738 65.2671 89.7488 65.621C90.124 65.9419 90.6084 66.106 91.1013 66.0791C91.7361 66.0646 92.3518 65.8593 92.8684 65.4901C93.5158 65.0441 94.0962 64.5079 94.5918 63.8976C95.1751 63.1584 95.6934 62.3701 96.1407 61.5415C97.1633 59.6917 97.9685 57.7298 98.5404 55.695C98.8312 54.7147 99.0572 53.7163 99.2167 52.7062C99.3543 51.9866 99.4346 51.2571 99.4567 50.5247C99.4936 49.8797 99.4348 49.2327 99.2821 48.6049C99.176 48.0993 98.9347 47.6318 98.584 47.2524C98.1828 46.9302 97.6805 46.7602 97.166 46.7724ZM124.065 45.8126H109.492L109.143 46.8379C109.597 46.8696 110.048 46.9279 110.495 47.0124C110.75 47.0592 110.986 47.1807 111.172 47.3615C111.238 47.4555 111.283 47.5623 111.306 47.6749C111.328 47.7876 111.327 47.9037 111.302 48.0159C111.259 48.3675 111.171 48.7121 111.041 49.0412C110.343 51.0919 109.601 52.9898 108.859 54.6915C108.117 56.3931 107.397 57.9201 106.678 59.2509C106.095 60.4394 105.439 61.5906 104.714 62.6977C104.256 63.3304 103.798 63.8976 103.383 64.3775C102.975 64.8339 102.538 65.2638 102.075 65.6646C101.648 66.0443 101.196 66.3942 100.722 66.7118L100.569 67.2353C100.792 67.3418 101.026 67.4223 101.267 67.4753C101.567 67.5539 101.874 67.5979 102.184 67.6062C102.586 67.5736 102.971 67.4301 103.296 67.1917C103.737 66.875 104.133 66.5008 104.474 66.0791C105.166 65.2764 105.786 64.4151 106.329 63.5049C106.939 62.5014 107.528 61.3234 108.117 60.2326C108.706 59.1418 109.295 57.8111 109.841 56.5021C110.386 55.1932 110.91 53.9279 111.412 52.5972C111.913 51.2664 112.35 50.0229 112.786 48.7576C112.87 48.4509 112.979 48.1517 113.113 47.8632C113.196 47.6693 113.323 47.4975 113.484 47.3615C113.662 47.2571 113.868 47.2113 114.073 47.2306H116.909C117.094 47.1734 117.291 47.1734 117.476 47.2306C117.535 47.2799 117.577 47.3462 117.597 47.4205C117.616 47.4947 117.612 47.5732 117.585 47.6451C117.533 47.9524 117.445 48.2526 117.324 48.5395L112.35 62.6759C112.088 63.3522 111.87 63.9194 111.695 64.3339C111.546 64.6853 111.339 65.0096 111.084 65.2938C110.868 65.518 110.597 65.6831 110.299 65.7737C109.899 65.8809 109.49 65.9539 109.077 65.9919L108.728 66.9954H116.953L117.302 65.9919C116.888 65.962 116.479 65.8889 116.08 65.7737C115.958 65.7419 115.845 65.6819 115.75 65.5986C115.656 65.5152 115.582 65.4108 115.535 65.2938C115.45 64.9794 115.45 64.6483 115.535 64.3339C115.644 63.9194 115.818 63.3522 116.058 62.6759L120.421 49.7175C120.57 49.2541 120.752 48.8021 120.967 48.365C121.096 48.0576 121.281 47.7766 121.512 47.536C121.749 47.3428 122.024 47.2016 122.319 47.1215C122.735 47.0196 123.158 46.9539 123.585 46.9251L123.934 45.8998L124.065 45.8126ZM141.8 45.8126L141.451 46.8379C141.025 46.8684 140.602 46.9341 140.186 47.0342C139.896 47.1091 139.627 47.2511 139.401 47.4487C139.162 47.6879 138.97 47.9689 138.834 48.2777C138.628 48.7159 138.453 49.1678 138.31 49.6303L133.947 62.5886C133.707 63.2649 133.532 63.8321 133.423 64.2466C133.336 64.5606 133.336 64.8925 133.423 65.2065C133.464 65.3277 133.535 65.436 133.631 65.5203C133.727 65.6047 133.843 65.662 133.969 65.6864C134.36 65.8021 134.762 65.8752 135.169 65.9046L134.82 66.9081H126.53L126.879 65.9046C127.292 65.8707 127.701 65.7977 128.1 65.6864C128.404 65.6073 128.677 65.4403 128.886 65.2065C129.141 64.9223 129.347 64.598 129.497 64.2466C129.693 63.8321 129.911 63.2649 130.151 62.5886L135.016 48.5395C135.138 48.2526 135.226 47.9524 135.278 47.6451C135.314 47.582 135.333 47.5106 135.333 47.4378C135.333 47.3651 135.314 47.2936 135.278 47.2306C135.093 47.1748 134.895 47.1748 134.71 47.2306H131.787C131.589 47.2114 131.39 47.2573 131.22 47.3615C131.046 47.4851 130.916 47.6608 130.849 47.8632C130.707 48.1506 130.59 48.4499 130.5 48.7576C130.086 50.0229 129.627 51.2882 129.126 52.5972C128.624 53.9061 128.122 55.215 127.555 56.5021C126.988 57.7892 126.442 59.0327 125.853 60.2326C125.264 61.4324 124.654 62.4141 124.043 63.5049C123.486 64.411 122.859 65.2718 122.167 66.0791C121.82 66.4957 121.424 66.8692 120.989 67.1917C120.697 67.42 120.351 67.5702 119.985 67.628C119.683 67.6182 119.383 67.5743 119.091 67.4971C118.843 67.4439 118.601 67.3634 118.371 67.2572L118.523 66.7336C119.005 66.4162 119.464 66.0663 119.898 65.6864C120.354 65.2852 120.784 64.8552 121.185 64.3993C121.659 63.864 122.103 63.3033 122.516 62.7195C123.312 61.6464 124.041 60.5244 124.697 59.36C125.5 57.8778 126.229 56.356 126.879 54.8005C127.62 53.0989 128.362 51.201 129.06 49.1503C129.17 48.8148 129.258 48.4723 129.322 48.125C129.356 47.8954 129.301 47.6615 129.169 47.4705C128.987 47.2851 128.75 47.1629 128.493 47.1215C128.053 47.0367 127.609 46.9784 127.162 46.947L127.511 45.9216H141.8V45.8126ZM143.982 45.8126L143.589 46.8379C143.996 46.8673 144.398 46.9404 144.789 47.056C144.912 47.0764 145.029 47.1242 145.131 47.196C145.233 47.2677 145.318 47.3616 145.378 47.4705C145.47 47.7468 145.47 48.0451 145.378 48.3213C145.269 48.8329 145.123 49.336 144.942 49.8266L140.492 62.8941C140.326 63.4359 140.13 63.9677 139.903 64.4866C139.767 64.8205 139.567 65.1244 139.314 65.381C139.082 65.5824 138.805 65.7247 138.506 65.7955L137.219 65.9919L136.827 66.9954H150.723L151.159 66.2318C151.334 65.9046 151.53 65.5556 151.727 65.1629C151.923 64.7702 152.141 64.3993 152.337 64.0067C152.534 63.614 152.73 63.2431 152.905 62.9159C153.079 62.5886 153.21 62.2832 153.341 62.0433L152.425 61.6506C152.011 62.2548 151.567 62.8373 151.094 63.3958C150.748 63.8317 150.36 64.2335 149.938 64.5957C149.484 65.0047 148.937 65.2967 148.345 65.4465C147.692 65.6305 147.016 65.7187 146.338 65.7083C145.79 65.7213 145.241 65.6774 144.702 65.5774C144.557 65.5693 144.416 65.5301 144.288 65.4623C144.16 65.3945 144.048 65.2998 143.96 65.1847C143.845 65.0359 143.79 64.8487 143.808 64.6611C143.821 64.3737 143.865 64.0884 143.938 63.8103C143.938 63.4613 144.157 63.0031 144.331 62.4796L146.382 56.7203H148.345C148.795 56.6793 149.248 56.6793 149.698 56.7203C149.826 56.7349 149.95 56.7752 150.063 56.8389C150.175 56.9027 150.274 56.9885 150.352 57.0912C150.495 57.3345 150.549 57.6197 150.505 57.8983C150.479 58.3684 150.413 58.8354 150.309 59.2945H151.334L153.646 52.7499H152.708C152.403 53.3171 152.141 53.7534 151.923 54.1024C151.75 54.3927 151.52 54.645 151.247 54.8442C150.984 55.014 150.685 55.1187 150.374 55.1496C149.916 55.1769 149.457 55.1769 149 55.1496H146.949L149.283 48.3213C149.364 48.0556 149.474 47.7995 149.61 47.5578C149.65 47.4709 149.708 47.3931 149.779 47.3293C149.85 47.2655 149.934 47.217 150.025 47.1869C150.263 47.1471 150.507 47.1471 150.745 47.1869H152.359C152.773 47.1462 153.189 47.1462 153.603 47.1869C153.855 47.2082 154.097 47.2988 154.301 47.4487C154.464 47.5922 154.578 47.7828 154.628 47.9941C154.765 48.3634 154.825 48.757 154.802 49.1503C154.798 49.6981 154.754 50.2449 154.672 50.7865H155.653C155.77 50.3502 155.901 49.892 156.046 49.4121L156.439 47.9941C156.57 47.5142 156.7 47.0997 156.81 46.7288C156.919 46.3579 156.984 46.0743 157.049 45.878L143.982 45.8126ZM176.334 45.8126L175.985 46.8815C175.551 46.8938 175.12 46.9523 174.698 47.056C174.385 47.1407 174.099 47.3062 173.869 47.536C173.614 47.816 173.414 48.1417 173.28 48.4959C173.084 48.9322 172.888 49.4994 172.648 50.1975L167.979 64.203C167.857 64.5199 167.769 64.849 167.717 65.1847C167.698 65.2611 167.703 65.3415 167.73 65.4154C167.757 65.4894 167.806 65.5534 167.87 65.5992C168.049 65.6444 168.236 65.6444 168.415 65.5992H170.161L166.91 72.5365H165.797L166.583 68.3916C166.626 68.095 166.626 67.7937 166.583 67.4971C166.593 67.4103 166.58 67.3223 166.546 67.242C166.511 67.1616 166.456 67.0916 166.387 67.039C166.224 66.9365 166.032 66.8905 165.841 66.9081H156.919C156.601 66.8993 156.284 66.9435 155.981 67.039C155.712 67.1392 155.472 67.3041 155.282 67.5189C155.004 67.8291 154.755 68.1651 154.541 68.5225L152.01 72.5365H151.007L153.341 65.5992H154.65C154.868 65.6026 155.084 65.5579 155.282 65.4683C155.52 65.3186 155.722 65.1173 155.871 64.8793C156.372 64.1798 156.831 63.4514 157.246 62.6977C157.748 61.8251 158.249 60.8216 158.795 59.7308C159.34 58.64 159.842 57.5493 160.387 56.2622C160.933 54.9751 161.413 53.8188 161.893 52.5972C162.372 51.3755 162.787 50.1757 163.158 49.0412C163.285 48.6958 163.373 48.3373 163.42 47.9723C163.435 47.8617 163.421 47.7489 163.379 47.6454C163.337 47.542 163.268 47.4515 163.18 47.3833C162.918 47.2111 162.619 47.1062 162.307 47.0779L161.129 46.8815L161.434 45.8126H176.334ZM164.14 63.9194L169.441 48.6486C169.567 48.3088 169.662 47.9583 169.724 47.6014C169.724 47.3615 169.724 47.1869 169.724 47.1215C169.536 47.0268 169.323 46.9889 169.113 47.0124H166.277C166.069 46.9712 165.854 46.9712 165.645 47.0124C165.561 47.0464 165.486 47.0967 165.422 47.1604C165.358 47.2241 165.308 47.2999 165.274 47.3833C165.131 47.6478 165.014 47.9254 164.925 48.2123C164.619 49.1067 164.27 50.0666 163.878 51.1355C163.485 52.2045 163.071 53.3171 162.612 54.4733C162.154 55.6295 161.653 56.8076 161.151 57.9856C160.649 59.1636 160.082 60.3417 159.536 61.4761C158.991 62.6105 158.402 63.6576 157.791 64.7484C157.639 64.9883 157.573 65.1629 157.617 65.2938C157.66 65.4247 157.835 65.4683 158.118 65.4683H162.263C162.56 65.478 162.855 65.4336 163.136 65.3374C163.366 65.2319 163.557 65.0563 163.681 64.8356C163.891 64.4957 164.052 64.1287 164.161 63.7449L164.14 63.9194ZM190.885 50.1757C191.125 49.5212 191.322 48.9976 191.518 48.5831C191.657 48.2444 191.857 47.9339 192.107 47.6669C192.318 47.4401 192.591 47.2807 192.892 47.2087C193.297 47.0893 193.714 47.0161 194.136 46.9906L194.485 45.8998H186.26L185.911 46.9906C186.341 47.0102 186.766 47.0835 187.177 47.2087C187.299 47.2332 187.413 47.288 187.508 47.3681C187.603 47.4481 187.677 47.5509 187.722 47.6669C187.811 47.9659 187.811 48.2841 187.722 48.5831C187.722 48.9976 187.46 49.5212 187.22 50.1757L185.431 55.1496C185.058 55.1392 184.687 55.1027 184.319 55.0405C184.009 54.9912 183.712 54.8799 183.446 54.7133C183.169 54.507 182.945 54.2378 182.792 53.9279C182.599 53.5741 182.466 53.1908 182.399 52.7935C182.282 52.2468 182.202 51.6929 182.159 51.1355C182.159 50.4593 182.028 49.6303 181.963 48.6704C181.987 47.8208 181.791 46.9793 181.396 46.2271C181.24 45.9842 181.023 45.7873 180.766 45.6569C180.509 45.5265 180.222 45.4672 179.934 45.4853C179.582 45.4768 179.232 45.5438 178.909 45.6817C178.632 45.7787 178.385 45.9437 178.189 46.1616C178.02 46.3309 177.9 46.5416 177.84 46.7724C177.79 47.054 177.852 47.3438 178.014 47.5796C178.086 47.6861 178.184 47.7722 178.298 47.8295C178.413 47.8869 178.541 47.9135 178.669 47.9068H179.258C179.5 47.8931 179.741 47.946 179.956 48.0596C180.171 48.1876 180.334 48.3889 180.414 48.6268C180.557 49.0435 180.652 49.4754 180.697 49.9139C180.697 50.5029 180.872 51.2446 180.959 52.0954C181.014 52.6629 181.116 53.2247 181.265 53.7752C181.37 54.1294 181.524 54.4672 181.723 54.7787C181.841 54.9744 181.997 55.1448 182.181 55.2805V55.3895C181.34 55.6084 180.543 55.97 179.825 56.4585C179.004 57.0432 178.269 57.7409 177.643 58.531C177.36 58.9018 177.032 59.3163 176.683 59.8399L175.527 61.5415C175.135 62.1742 174.676 62.8068 174.24 63.4613C173.903 63.9917 173.516 64.4885 173.084 64.9447C172.816 65.2471 172.489 65.492 172.124 65.6646C171.794 65.8221 171.44 65.9252 171.077 65.97L170.706 66.9081H173.847C174.417 66.92 174.983 66.8083 175.505 66.5809C176.01 66.347 176.457 66.0043 176.814 65.5774C177.27 65.0596 177.672 64.4968 178.014 63.8976C178.276 63.4831 178.538 63.0031 178.843 62.4796L179.781 60.8434L180.85 59.0982C181.207 58.5362 181.608 58.0037 182.05 57.5056C182.358 57.1625 182.71 56.8617 183.097 56.6112C183.409 56.4279 183.747 56.2953 184.101 56.2185C184.442 56.1853 184.785 56.1853 185.126 56.2185L182.944 62.7632C182.766 63.2993 182.555 63.8239 182.312 64.3339C182.162 64.6853 181.956 65.0096 181.701 65.2938C181.472 65.5183 181.196 65.6896 180.894 65.7955C180.523 65.9035 180.144 65.9766 179.759 66.0137L179.345 67.0172H187.504L187.918 66.0137C187.505 65.9839 187.095 65.9107 186.697 65.7955C186.576 65.7585 186.466 65.6939 186.375 65.6068C186.284 65.5196 186.215 65.4124 186.173 65.2938C186.074 64.9814 186.074 64.6462 186.173 64.3339C186.296 63.7997 186.456 63.2748 186.653 62.7632L188.835 56.2185C189.117 56.1829 189.403 56.1829 189.685 56.2185C189.951 56.2776 190.189 56.4235 190.362 56.633C190.581 56.9035 190.724 57.2272 190.776 57.5711C190.839 58.1074 190.839 58.6492 190.776 59.1854C190.776 59.8181 190.776 60.4071 190.776 60.9089C190.776 61.4106 190.776 61.9124 190.776 62.3487V63.6358C190.738 64.1295 190.738 64.6255 190.776 65.1192C190.829 65.4826 190.955 65.8315 191.147 66.1446C191.339 66.4198 191.614 66.6262 191.932 66.7336C192.354 66.871 192.798 66.9302 193.241 66.9081H196.121L196.426 65.97C196.047 65.9357 195.678 65.8321 195.336 65.6646C195.057 65.5005 194.854 65.2344 194.768 64.9229C194.623 64.4413 194.542 63.9424 194.528 63.4395C194.528 62.8068 194.528 62.196 194.528 61.6288C194.528 61.0616 194.528 60.5162 194.528 60.0581C194.528 59.5999 194.528 59.2073 194.528 58.9018C194.514 58.288 194.388 57.682 194.158 57.113C193.984 56.6928 193.724 56.3137 193.394 56.0004C193.082 55.7397 192.728 55.5332 192.347 55.3895V55.2805C192.587 55.1714 192.892 54.9969 193.263 54.7787C193.686 54.489 194.08 54.1603 194.441 53.797C194.966 53.285 195.448 52.7305 195.881 52.139C196.557 51.2228 197.124 50.5029 197.583 49.9575C197.933 49.4975 198.311 49.0603 198.717 48.6486C198.951 48.3875 199.232 48.1729 199.546 48.0159C199.792 47.9016 200.06 47.8421 200.331 47.8414H200.92C201.119 47.8392 201.314 47.7867 201.488 47.6887C201.682 47.5969 201.854 47.4627 201.989 47.296C202.141 47.1297 202.246 46.9266 202.295 46.707C202.319 46.5462 202.305 46.382 202.256 46.227C202.207 46.072 202.123 45.9303 202.011 45.8126C201.866 45.6767 201.694 45.5733 201.506 45.5094C201.318 45.4454 201.118 45.4223 200.92 45.4417C200.495 45.4443 200.076 45.549 199.699 45.7471C199.217 46.0078 198.782 46.3469 198.412 46.7506C197.876 47.321 197.387 47.9338 196.95 48.5831C196.405 49.3903 195.903 50.0884 195.488 50.6556C195.074 51.2228 194.725 51.7027 194.398 52.0954C194.07 52.4881 193.787 52.8371 193.525 53.1207L192.696 53.8843C192.342 54.167 191.962 54.4153 191.562 54.626C191.213 54.7847 190.847 54.9019 190.471 54.9751C190.023 55.0456 189.571 55.0893 189.118 55.1059L190.885 50.1757Z" fill="white"/>
</g>
<defs>
<clipPath id="clip0_50_81">
<rect width="205.48" height="92.7812" fill="white"/>
</clipPath>
</defs>
</svg>
