<svg width="40" height="40" viewBox="0 0 40 40" fill="none" xmlns="http://www.w3.org/2000/svg">
<path d="M31.6667 5H8.33333C6.49167 5 5 6.49167 5 8.33333V31.6667C5 33.5083 6.49167 35 8.33333 35H31.6667C33.5083 35 35 33.5083 35 31.6667V8.33333C35 6.49167 33.5083 5 31.6667 5ZM29.845 26.14L26.9533 26.18C26.9533 26.18 26.33 26.3017 25.5133 25.7383C24.4317 24.995 23.4117 23.0617 22.6167 23.3133C21.81 23.57 21.835 25.31 21.835 25.31C21.835 25.31 21.8417 25.6167 21.6567 25.8167C21.4567 26.0317 21.065 26.01 21.065 26.01H19.77C19.77 26.01 16.9133 26.2467 14.395 23.6217C11.6517 20.76 9.22833 15.1117 9.22833 15.1117C9.22833 15.1117 9.08667 14.755 9.23833 14.5733C9.41 14.3717 9.87333 14.3667 9.87333 14.3667L12.9683 14.3517C12.9683 14.3517 13.26 14.4033 13.47 14.5567C13.6417 14.6833 13.74 14.9217 13.74 14.9217C13.74 14.9217 14.24 16.19 14.9033 17.3383C16.1967 19.5767 16.7983 20.0667 17.2367 19.8267C17.8767 19.4767 17.685 16.6633 17.685 16.6633C17.685 16.6633 17.6967 15.6417 17.3633 15.1867C17.1033 14.8317 16.615 14.7267 16.4 14.7C16.225 14.6767 16.51 14.2717 16.8817 14.0883C17.4383 13.8167 18.4233 13.8 19.585 13.8117C20.49 13.8217 20.7517 13.8767 21.105 13.9633C22.1733 14.2217 21.81 15.2183 21.81 17.61C21.81 18.3767 21.6717 19.4533 22.2233 19.8083C22.4617 19.9617 23.0417 19.8317 24.49 17.365C25.1783 16.195 25.6933 14.82 25.6933 14.82C25.6933 14.82 25.8067 14.575 25.9817 14.47C26.1617 14.3617 26.4033 14.395 26.4033 14.395L29.6617 14.375C29.6617 14.375 30.64 14.2567 30.8 14.7017C30.9667 15.1667 30.435 16.2517 29.1033 18.0267C26.9183 20.9433 26.675 20.6717 28.49 22.3583C30.2233 23.97 30.5817 24.7533 30.6417 24.8517C31.3583 26.045 29.845 26.14 29.845 26.14Z" fill="white"/>
</svg>
