<svg width="41" height="40" viewBox="0 0 41 40" fill="none" xmlns="http://www.w3.org/2000/svg">
<path d="M36.5016 0H5.34178C2.88238 0 0.890381 1.98889 0.890381 4.44444V35.5556C0.890381 38.0111 2.88238 40 5.34178 40H36.5016C38.961 40 40.953 38.0111 40.953 35.5556V4.44444C40.953 1.98889 38.961 0 36.5016 0ZM34.0689 28.1867L30.2073 28.24C30.2073 28.24 29.3749 28.4022 28.2843 27.6511C26.8398 26.66 25.4777 24.0822 24.416 24.4178C23.3388 24.76 23.3722 27.08 23.3722 27.08C23.3722 27.08 23.3811 27.4889 23.134 27.7556C22.8669 28.0422 22.3439 28.0133 22.3439 28.0133H20.6145C20.6145 28.0133 16.7997 28.3289 13.4367 24.8289C9.77315 21.0133 6.53698 13.4822 6.53698 13.4822C6.53698 13.4822 6.3478 13.0067 6.55034 12.7644C6.77958 12.4956 7.39833 12.4889 7.39833 12.4889L11.5315 12.4689C11.5315 12.4689 11.9209 12.5378 12.2014 12.7422C12.4306 12.9111 12.562 13.2289 12.562 13.2289C12.562 13.2289 13.2297 14.92 14.1155 16.4511C15.8426 19.4356 16.6461 20.0889 17.2315 19.7689C18.0861 19.3022 17.8302 15.5511 17.8302 15.5511C17.8302 15.5511 17.8458 14.1889 17.4006 13.5822C17.0534 13.1089 16.4013 12.9689 16.1142 12.9333C15.8805 12.9022 16.2611 12.3622 16.7574 12.1178C17.5008 11.7556 18.8162 11.7333 20.3675 11.7489C21.576 11.7622 21.9255 11.8356 22.3973 11.9511C23.824 12.2956 23.3388 13.6244 23.3388 16.8133C23.3388 17.8356 23.1541 19.2711 23.8908 19.7444C24.209 19.9489 24.9836 19.7756 26.9177 16.4867C27.8369 14.9267 28.5247 13.0933 28.5247 13.0933C28.5247 13.0933 28.676 12.7667 28.9097 12.6267C29.1501 12.4822 29.4728 12.5267 29.4728 12.5267L33.8241 12.5C33.8241 12.5 35.1306 12.3422 35.3442 12.9356C35.5668 13.5556 34.8568 15.0022 33.0785 17.3689C30.1606 21.2578 29.8356 20.8956 32.2594 23.1444C34.5741 25.2933 35.0527 26.3378 35.1328 26.4689C36.0898 28.06 34.0689 28.1867 34.0689 28.1867Z" fill="white"/>
</svg>
